<svg width="43" height="18" viewBox="0 0 43 18" fill="none" xmlns="http://www.w3.org/2000/svg">
<path d="M6.18 11.45C6.14 11.49 6.03 11.55 5.85 11.63C5.67 11.71 5.47 11.79 5.25 11.87C5.05 11.95 4.86 12.03 4.68 12.11C4.5 12.19 4.38 12.25 4.32 12.29C4.28 12.29 4.2 12.32 4.08 12.38C3.96 12.42 3.83 12.47 3.69 12.53C3.55 12.59 3.41 12.65 3.27 12.71C3.15 12.75 3.06 12.77 3 12.77C2.96 12.79 2.92 12.8 2.88 12.8C2.84 12.8 2.8 12.81 2.76 12.83L2.64 12.89L2.55 13.13C2.49 13.27 2.44 13.4 2.4 13.52C2.36 13.62 2.33 13.73 2.31 13.85C2.29 13.97 2.28 14.05 2.28 14.09L2.22 14.66C2.18 14.84 2.14 15.02 2.1 15.2C2.06 15.36 2.03 15.51 2.01 15.65C2.01 15.79 2.01 15.91 2.01 16.01V16.25C2.01 16.29 1.98 16.35 1.92 16.43C1.88 16.49 1.84 16.57 1.8 16.67C1.74 16.77 1.68 16.88 1.62 17L1.14 17.09L0.84 16.85C0.84 16.73 0.81 16.53 0.75 16.25C0.69 15.95 0.66 15.75 0.66 15.65C0.66 15.59 0.67 15.48 0.69 15.32C0.71 15.14 0.73 14.95 0.75 14.75C0.77 14.53 0.79 14.33 0.81 14.15C0.83 13.95 0.84 13.8 0.84 13.7C0.84 13.6 0.86 13.45 0.9 13.25C0.94 13.05 0.99 12.84 1.05 12.62C1.11 12.4 1.16 12.2 1.2 12.02C1.24 11.82 1.26 11.67 1.26 11.57C1.26 11.51 1.29 11.38 1.35 11.18C1.41 10.96 1.47 10.73 1.53 10.49C1.61 10.23 1.68 10 1.74 9.8C1.8 9.58 1.83 9.45 1.83 9.41L2.01 8.63C2.07 8.53 2.14 8.34 2.22 8.06C2.3 7.78 2.39 7.48 2.49 7.16C2.59 6.84 2.68 6.55 2.76 6.29C2.84 6.01 2.91 5.82 2.97 5.72L3.21 5.3C3.21 5.26 3.23 5.19 3.27 5.09C3.31 4.97 3.35 4.85 3.39 4.73C3.43 4.61 3.47 4.5 3.51 4.4C3.55 4.28 3.57 4.19 3.57 4.13C3.57 4.03 3.63 3.87 3.75 3.65C3.89 3.41 3.96 3.24 3.96 3.14L4.17 2.75L4.56 1.79C4.6 1.75 4.65 1.69 4.71 1.61C4.77 1.51 4.83 1.41 4.89 1.31C4.97 1.21 5.04 1.11 5.1 1.01H5.7L6.12 1.4V2.75C6.12 2.81 6.13 2.9 6.15 3.02C6.17 3.14 6.2 3.25 6.24 3.35C6.28 3.47 6.33 3.6 6.39 3.74C6.39 3.84 6.44 4.01 6.54 4.25C6.66 4.47 6.77 4.82 6.87 5.3L7.35 7.61C7.39 7.73 7.41 7.89 7.41 8.09C7.43 8.27 7.46 8.46 7.5 8.66C7.52 8.88 7.55 9.12 7.59 9.38L8.07 9.26L9.06 9.35L9.27 9.71L9.15 9.95C9.07 10.09 8.99 10.16 8.91 10.16L7.8 10.73L8.04 13.43L8.16 15.26L8.22 16.85C8.22 16.93 8.19 17.05 8.13 17.21C8.09 17.37 8.07 17.5 8.07 17.6L7.89 17.78H7.5L7.14 17.51C7.1 17.41 7.06 17.32 7.02 17.24C6.96 17.1 6.93 16.97 6.93 16.85C6.87 16.69 6.82 16.51 6.78 16.31C6.76 16.09 6.73 15.87 6.69 15.65C6.65 15.41 6.63 15.15 6.63 14.87L6.39 13.49C6.39 13.43 6.38 13.35 6.36 13.25C6.34 13.13 6.32 13.01 6.3 12.89C6.3 12.75 6.29 12.63 6.27 12.53C6.25 12.41 6.24 12.33 6.24 12.29V12.11L6.18 11.45ZM5.49 6.8C5.49 6.76 5.47 6.64 5.43 6.44C5.39 6.24 5.34 6.02 5.28 5.78C5.22 5.54 5.17 5.32 5.13 5.12C5.09 4.9 5.07 4.76 5.07 4.7C5.05 4.76 5.01 4.88 4.95 5.06C4.89 5.24 4.82 5.43 4.74 5.63C4.68 5.83 4.62 6.02 4.56 6.2C4.52 6.36 4.5 6.46 4.5 6.5L4.29 7.1L4.08 7.46C4.08 7.52 4.06 7.61 4.02 7.73C4 7.83 3.96 7.95 3.9 8.09C3.86 8.21 3.82 8.33 3.78 8.45C3.76 8.55 3.75 8.62 3.75 8.66L3.03 11.21L3.75 10.82C3.81 10.82 3.91 10.79 4.05 10.73C4.21 10.67 4.37 10.61 4.53 10.55C4.71 10.47 4.87 10.4 5.01 10.34C5.15 10.28 5.25 10.25 5.31 10.25L5.97 10.01L5.82 8.63L5.61 7.85C5.61 7.75 5.59 7.61 5.55 7.43C5.51 7.23 5.49 7.08 5.49 6.98V6.8ZM11.5308 17.3C11.5308 17.24 11.5108 17.14 11.4708 17C11.4508 16.86 11.4108 16.71 11.3508 16.55C11.3108 16.37 11.2708 16.21 11.2308 16.07C11.2108 15.93 11.2008 15.83 11.2008 15.77V14.75C11.2008 14.65 11.1908 14.35 11.1708 13.85C11.1508 13.35 11.1308 12.81 11.1108 12.23C11.1108 11.63 11.1008 11.08 11.0808 10.58C11.0608 10.08 11.0508 9.78 11.0508 9.68V9.29C11.0508 9.17 11.0508 8.9 11.0508 8.48C11.0708 8.06 11.0808 7.62 11.0808 7.16C11.0808 6.68 11.0808 6.24 11.0808 5.84C11.1008 5.42 11.1108 5.16 11.1108 5.06V3.35C11.1108 3.25 11.1208 3.08 11.1408 2.84C11.1808 2.6 11.2108 2.35 11.2308 2.09C11.2708 1.81 11.3008 1.55 11.3208 1.31C11.3608 1.07 11.3808 0.899999 11.3808 0.799999L11.7408 0.259998L12.1908 0.199999L12.5808 0.59C12.5808 0.709999 12.5908 0.899999 12.6108 1.16C12.6308 1.42 12.6508 1.7 12.6708 2C12.7108 2.28 12.7408 2.55 12.7608 2.81C12.8008 3.07 12.8208 3.25 12.8208 3.35V6.95C12.8208 7.05 12.8208 7.21 12.8208 7.43C12.8208 7.65 12.8208 7.88 12.8208 8.12C12.8408 8.36 12.8508 8.59 12.8508 8.81C12.8508 9.03 12.8508 9.2 12.8508 9.32C12.9108 9.26 13.0008 9.17 13.1208 9.05C13.2608 8.93 13.4008 8.81 13.5408 8.69C13.7008 8.55 13.8408 8.44 13.9608 8.36C14.1008 8.26 14.2008 8.21 14.2608 8.21C14.4208 8.19 14.5708 8.16 14.7108 8.12C14.8308 8.1 14.9508 8.08 15.0708 8.06C15.1908 8.04 15.2808 8.03 15.3408 8.03H15.5508C15.5908 8.03 15.6508 8.04 15.7308 8.06C15.8108 8.08 15.8808 8.1 15.9408 8.12C16.0208 8.16 16.1008 8.19 16.1808 8.21C16.2808 8.21 16.4108 8.31 16.5708 8.51C16.7508 8.69 16.9008 8.83 17.0208 8.93C17.1208 9.03 17.2108 9.2 17.2908 9.44C17.3908 9.66 17.4408 9.83 17.4408 9.95L17.5908 10.91L17.4408 12.41L17.3208 12.65C17.2608 12.81 17.2308 12.94 17.2308 13.04C17.1708 13.14 17.0808 13.29 16.9608 13.49C16.8608 13.69 16.7608 13.88 16.6608 14.06C16.5408 14.28 16.4008 14.51 16.2408 14.75L14.9508 15.98C14.7708 16.08 14.5208 16.21 14.2008 16.37C13.8808 16.51 13.6708 16.58 13.5708 16.58L12.9108 17.3L12.6708 17.42C12.5108 17.5 12.3808 17.54 12.2808 17.54H11.9208L11.5308 17.3ZM14.7108 9.68C14.6108 9.68 14.5108 9.71 14.4108 9.77C14.3108 9.81 14.2108 9.87 14.1108 9.95C14.0308 10.03 13.9408 10.15 13.8408 10.31C13.7808 10.35 13.7108 10.43 13.6308 10.55C13.5508 10.67 13.4708 10.79 13.3908 10.91C13.3108 11.05 13.2108 11.2 13.0908 11.36V15.29L13.8408 14.81C13.8808 14.77 13.9508 14.7 14.0508 14.6C14.1508 14.48 14.2508 14.37 14.3508 14.27C14.4508 14.15 14.5708 14.03 14.7108 13.91C14.7708 13.81 14.8708 13.67 15.0108 13.49C15.1508 13.29 15.2808 13.08 15.4008 12.86C15.5408 12.6 15.6408 12.35 15.7008 12.11C15.7808 11.87 15.8408 11.73 15.8808 11.69V10.43C15.8808 10.39 15.8608 10.33 15.8208 10.25C15.7808 10.17 15.7408 10.08 15.7008 9.98C15.6408 9.9 15.5908 9.8 15.5508 9.68L15.1308 9.59L14.7108 9.68ZM19.4548 11.6V10.37C19.4548 10.31 19.4748 10.23 19.5148 10.13C19.5548 10.01 19.6048 9.89 19.6648 9.77C19.7448 9.63 19.8148 9.5 19.8748 9.38C19.9548 9.26 20.0248 9.17 20.0848 9.11L20.4748 8.75C20.5148 8.71 20.5748 8.66 20.6548 8.6C20.7348 8.54 20.8048 8.49 20.8648 8.45C20.9448 8.39 21.0148 8.35 21.0748 8.33L21.7648 8.15L22.4848 8.33C22.6048 8.33 22.7848 8.45 23.0248 8.69C23.2848 8.93 23.5248 9.29 23.7448 9.77C23.7848 9.93 23.8548 10.16 23.9548 10.46C24.0548 10.74 24.1048 10.93 24.1048 11.03L24.1348 12.56L23.9248 13.82C23.8848 13.98 23.8548 14.13 23.8348 14.27C23.7948 14.39 23.7648 14.51 23.7448 14.63C23.7448 14.75 23.7448 14.84 23.7448 14.9L23.6248 15.14C23.5648 15.26 23.5348 15.39 23.5348 15.53L23.3248 15.89C23.2448 16.01 23.1648 16.12 23.0848 16.22C23.0248 16.32 22.9548 16.42 22.8748 16.52C22.8148 16.6 22.7648 16.66 22.7248 16.7L22.4848 16.94L22.1248 17.12H21.6148C21.3348 17.12 21.1148 17.07 20.9548 16.97C20.8148 16.87 20.5848 16.65 20.2648 16.31L20.0848 15.89C20.0848 15.81 20.0448 15.69 19.9648 15.53L19.8448 15.29C19.8448 15.23 19.8348 15.11 19.8148 14.93C19.7948 14.75 19.7748 14.55 19.7548 14.33C19.7348 14.11 19.7148 13.9 19.6948 13.7C19.6748 13.5 19.6648 13.35 19.6648 13.25V11.78L19.4548 11.6ZM21.1348 12.02C21.1348 12.12 21.1448 12.29 21.1648 12.53C21.1848 12.75 21.2048 12.98 21.2248 13.22C21.2448 13.46 21.2648 13.68 21.2848 13.88C21.3048 14.08 21.3148 14.21 21.3148 14.27C21.3148 14.37 21.3748 14.51 21.4948 14.69C21.6348 14.85 21.7048 14.98 21.7048 15.08H21.8848L22.1248 14.9C22.1248 14.84 22.1448 14.74 22.1848 14.6C22.2248 14.46 22.2648 14.32 22.3048 14.18C22.3448 14.02 22.3848 13.87 22.4248 13.73C22.4648 13.59 22.4848 13.5 22.4848 13.46C22.4848 13.42 22.4948 13.34 22.5148 13.22C22.5348 13.1 22.5648 12.98 22.6048 12.86C22.6448 12.72 22.6848 12.57 22.7248 12.41V11C22.7248 10.96 22.7148 10.89 22.6948 10.79C22.6748 10.69 22.6448 10.59 22.6048 10.49C22.5648 10.39 22.5248 10.28 22.4848 10.16L22.1248 9.74L21.8248 9.65L21.4948 9.74L21.3148 9.98C21.3148 10.08 21.2848 10.25 21.2248 10.49C21.1648 10.73 21.1348 10.9 21.1348 11V12.02ZM30.8604 15.14C30.8604 15.1 30.8404 15.03 30.8004 14.93C30.7804 14.81 30.7504 14.69 30.7104 14.57C30.6904 14.43 30.6604 14.3 30.6204 14.18C30.5804 14.06 30.5604 13.97 30.5604 13.91C30.4004 14.33 30.2604 14.74 30.1404 15.14C30.0404 15.54 29.8704 15.89 29.6304 16.19L29.0304 16.73L28.6704 16.94L27.8604 17.03L27.4704 16.88L26.9904 16.31L26.8104 15.92C26.8104 15.86 26.8004 15.77 26.7804 15.65C26.7604 15.51 26.7404 15.37 26.7204 15.23C26.7004 15.09 26.6804 14.96 26.6604 14.84C26.6404 14.7 26.6304 14.61 26.6304 14.57V10.49C26.6304 10.45 26.6404 10.36 26.6604 10.22C26.6804 10.06 26.7004 9.9 26.7204 9.74C26.7404 9.58 26.7604 9.43 26.7804 9.29C26.8004 9.13 26.8104 9.03 26.8104 8.99V8.78C26.8104 8.66 26.8404 8.51 26.9004 8.33C26.9204 8.25 26.9504 8.15 26.9904 8.03L27.2304 7.64C27.2304 7.54 27.3004 7.45 27.4404 7.37C27.5004 7.33 27.5704 7.3 27.6504 7.28L27.8604 7.34L28.0404 7.52C28.0404 7.56 28.0504 7.65 28.0704 7.79C28.0904 7.93 28.1104 8.08 28.1304 8.24C28.1504 8.4 28.1704 8.55 28.1904 8.69C28.2104 8.83 28.2204 8.93 28.2204 8.99V12.26C28.2204 12.32 28.2204 12.53 28.2204 12.89C28.2204 13.23 28.2304 13.57 28.2504 13.91C28.2504 14.13 28.2604 14.32 28.2804 14.48C28.3204 14.64 28.3904 14.72 28.4904 14.72L28.8204 14.63L29.2104 13.88C29.2104 13.84 29.2404 13.76 29.3004 13.64C29.3804 13.5 29.4504 13.36 29.5104 13.22C29.5904 13.08 29.6604 12.95 29.7204 12.83C29.8004 12.69 29.8404 12.59 29.8404 12.53C29.8404 12.43 29.9104 12.24 30.0504 11.96C30.1904 11.68 30.2604 11.49 30.2604 11.39C30.2604 11.33 30.2704 11.19 30.2904 10.97C30.3104 10.75 30.3304 10.52 30.3504 10.28C30.3704 10.02 30.3904 9.79 30.4104 9.59C30.4304 9.37 30.4404 9.23 30.4404 9.17C30.4404 9.07 30.4704 8.94 30.5304 8.78C30.6104 8.62 30.6504 8.49 30.6504 8.39C30.6504 8.29 30.7104 8.13 30.8304 7.91C30.9504 7.69 31.0104 7.53 31.0104 7.43L31.2204 7.22L31.7604 7.28C31.9404 7.44 32.0304 7.69 32.0304 8.03C31.9904 8.23 31.9604 8.46 31.9404 8.72C31.9404 8.98 31.9404 9.24 31.9404 9.5C31.9404 9.76 31.9404 10 31.9404 10.22C31.9404 10.44 31.9404 10.61 31.9404 10.73L31.9704 12.26C32.0104 12.44 32.0504 12.62 32.0904 12.8C32.1304 12.96 32.1604 13.11 32.1804 13.25C32.2004 13.39 32.2104 13.51 32.2104 13.61C32.2104 13.65 32.2104 13.73 32.2104 13.85C32.2304 13.95 32.2504 14.05 32.2704 14.15C32.2904 14.27 32.3204 14.41 32.3604 14.57L33.7104 17.27V17.42L33.5304 17.84H33.3204C33.1604 17.84 33.0104 17.81 32.8704 17.75C32.7904 17.73 32.6904 17.7 32.5704 17.66L31.9704 17.06C31.9104 17 31.8504 16.93 31.7904 16.85C31.6704 16.69 31.6104 16.57 31.6104 16.49L31.4004 16.1L31.0104 15.56L30.8604 15.14ZM34.2745 10.49H33.8545L33.4345 10.31L33.1645 10.07V9.86C33.1645 9.74 33.2445 9.61 33.4045 9.47C33.5645 9.31 33.6445 9.17 33.6445 9.05C34.1245 8.73 34.5745 8.45 34.9945 8.21C35.4145 7.97 35.8645 7.71 36.3445 7.43V2.51C36.3445 2.37 36.3945 2.12 36.4945 1.76L36.6745 1.16C36.6745 1.08 36.6945 0.999999 36.7345 0.919999C36.7745 0.839999 36.8045 0.769999 36.8245 0.71C36.8645 0.63 36.9245 0.559999 37.0045 0.499999H37.2145L37.6645 0.98C37.6645 1.08 37.6745 1.26 37.6945 1.52C37.7145 1.76 37.7345 2.02 37.7545 2.3C37.7945 2.58 37.8245 2.85 37.8445 3.11C37.8645 3.37 37.8745 3.56 37.8745 3.68V6.53L40.5445 5.15C40.6445 5.15 40.7745 5.12 40.9345 5.06C41.0145 5.02 41.1045 4.98 41.2045 4.94L41.6545 5.06L42.1045 5.39V5.57L41.9245 5.84C41.8045 5.98 41.7045 6.09 41.6245 6.17C41.5445 6.25 41.4545 6.32 41.3545 6.38C41.2745 6.44 41.2145 6.47 41.1745 6.47L40.0345 7.13L39.7945 7.37C39.7345 7.37 39.6345 7.41 39.4945 7.49C39.3545 7.57 39.1945 7.67 39.0145 7.79C38.8345 7.91 38.6445 8.04 38.4445 8.18C38.2645 8.3 38.0945 8.41 37.9345 8.51L38.0845 14.6L38.3545 14.42L38.5945 14.27L39.6745 13.73C39.7345 13.73 39.8345 13.7 39.9745 13.64C40.1345 13.56 40.2945 13.48 40.4545 13.4C40.6145 13.3 40.7645 13.22 40.9045 13.16C41.0645 13.08 41.1745 13.04 41.2345 13.04L41.9245 12.59C42.0045 12.57 42.0845 12.54 42.1645 12.5C42.3245 12.42 42.4645 12.38 42.5845 12.38L43.2145 12.26L43.4245 12.38V12.59L43.2745 13.04C43.2345 13.1 43.1745 13.17 43.0945 13.25C43.0345 13.31 42.9645 13.38 42.8845 13.46C42.8245 13.52 42.7745 13.58 42.7345 13.64L41.6545 14.3L41.0245 14.63L40.5745 14.93L40.3345 15.11L39.6745 15.59L38.3245 16.73L37.8745 17H37.3345L37.1245 16.73L36.9145 16.31C36.8745 16.23 36.8345 16.15 36.7945 16.07C36.7145 15.87 36.6745 15.73 36.6745 15.65V15.41C36.6745 15.35 36.6545 15.26 36.6145 15.14C36.5945 15.02 36.5645 14.89 36.5245 14.75C36.5045 14.61 36.4845 14.48 36.4645 14.36C36.4445 14.24 36.4345 14.15 36.4345 14.09L36.3745 9.35L34.2745 10.49Z" fill="black"/>
</svg>
