<svg width="79" height="28" viewBox="0 0 79 28" fill="none" xmlns="http://www.w3.org/2000/svg">
<path d="M17.07 10.16C16.91 10.28 16.75 10.38 16.59 10.46C16.45 10.54 16.31 10.62 16.17 10.7C16.03 10.78 15.92 10.84 15.84 10.88C15.74 10.88 15.6 10.97 15.42 11.15C15.26 11.31 15.14 11.39 15.06 11.39C15.02 11.43 14.93 11.49 14.79 11.57C14.65 11.63 14.49 11.71 14.31 11.81C14.13 11.89 13.96 11.98 13.8 12.08C13.66 12.16 13.56 12.22 13.5 12.26C13.38 12.34 13.18 12.44 12.9 12.56C12.62 12.66 12.43 12.71 12.33 12.71L11.88 12.98V13.16C11.88 13.26 11.87 13.42 11.85 13.64C11.83 13.86 11.82 14.01 11.82 14.09C11.82 14.19 11.81 14.37 11.79 14.63C11.77 14.87 11.75 15.13 11.73 15.41C11.71 15.69 11.69 15.95 11.67 16.19C11.65 16.43 11.64 16.58 11.64 16.64C11.64 16.72 11.62 16.82 11.58 16.94C11.56 17 11.55 17.06 11.55 17.12C11.55 17.16 11.52 17.21 11.46 17.27C11.4 17.33 11.34 17.38 11.28 17.42C11.2 17.48 11.11 17.54 11.01 17.6H10.65L10.35 17.27L10.29 16.91C10.27 16.81 10.25 16.72 10.23 16.64C10.23 16.54 10.23 16.45 10.23 16.37C10.23 16.29 10.22 16.18 10.2 16.04C10.18 15.88 10.15 15.73 10.11 15.59C10.09 15.45 10.07 15.32 10.05 15.2C10.03 15.08 10.02 15 10.02 14.96V9.44C10.02 9.4 10.03 9.26 10.05 9.02C10.07 8.76 10.09 8.48 10.11 8.18C10.15 7.88 10.18 7.6 10.2 7.34C10.22 7.06 10.23 6.88 10.23 6.8C10.25 6.68 10.27 6.57 10.29 6.47C10.31 6.37 10.32 6.29 10.32 6.23C10.34 6.15 10.35 6.09 10.35 6.05C10.35 5.95 10.37 5.84 10.41 5.72C10.47 5.58 10.5 5.48 10.5 5.42C10.5 5.38 10.52 5.28 10.56 5.12C10.58 5.04 10.61 4.97 10.65 4.91L10.86 4.76L11.28 4.67H11.55L11.82 4.76L11.97 5.09L12 11.15L13.65 10.31C13.75 10.31 13.85 10.26 13.95 10.16C14.01 10.12 14.07 10.07 14.13 10.01C14.21 9.93 14.34 9.85 14.52 9.77C14.7 9.69 14.84 9.65 14.94 9.65L15.21 9.5L15.39 9.44C15.43 9.42 15.47 9.4 15.51 9.38C15.57 9.36 15.62 9.35 15.66 9.35C15.7 9.35 15.78 9.33 15.9 9.29C16.04 9.23 16.18 9.17 16.32 9.11C16.48 9.03 16.62 8.97 16.74 8.93C16.88 8.87 16.98 8.84 17.04 8.84L17.07 8.66C17.07 8.48 17.07 8.16 17.07 7.7C17.07 7.22 17.07 6.72 17.07 6.2C17.09 5.66 17.1 5.15 17.1 4.67C17.1 4.19 17.1 3.86 17.1 3.68C17.1 3.56 17.12 3.42 17.16 3.26C17.18 3.18 17.21 3.11 17.25 3.05L17.4 2.9C17.44 2.86 17.49 2.83 17.55 2.81C17.63 2.77 17.72 2.75 17.82 2.75C17.9 2.75 17.97 2.78 18.03 2.84C18.09 2.9 18.16 2.97 18.24 3.05L18.45 3.38C18.45 3.46 18.47 3.62 18.51 3.86C18.57 4.1 18.6 4.29 18.6 4.43C18.6 4.53 18.6 4.66 18.6 4.82C18.62 4.98 18.64 5.14 18.66 5.3C18.68 5.46 18.69 5.61 18.69 5.75C18.71 5.89 18.72 5.99 18.72 6.05C18.72 6.21 18.73 6.41 18.75 6.65C18.77 6.89 18.78 7.14 18.78 7.4C18.8 7.64 18.82 7.87 18.84 8.09C18.86 8.29 18.87 8.43 18.87 8.51V13.46C18.87 13.66 18.85 13.99 18.81 14.45C18.79 14.89 18.76 15.36 18.72 15.86C18.7 16.36 18.68 16.84 18.66 17.3C18.64 17.74 18.63 18.06 18.63 18.26L18.3 19.25L18.15 19.4H17.94C17.86 19.4 17.76 19.35 17.64 19.25C17.54 19.13 17.49 19.03 17.49 18.95L17.37 18.53C17.33 18.43 17.3 18.33 17.28 18.23C17.26 18.11 17.25 18.03 17.25 17.99V17.72C17.25 17.56 17.24 17.21 17.22 16.67C17.2 16.11 17.18 15.52 17.16 14.9C17.14 14.28 17.12 13.7 17.1 13.16C17.08 12.6 17.07 12.24 17.07 12.08V10.16ZM3.9 15.92C3.9 15.82 3.9 15.71 3.9 15.59C3.9 15.45 3.91 15.3 3.93 15.14L3.99 14.6C3.99 14.56 4 14.47 4.02 14.33C4.04 14.19 4.06 14.05 4.08 13.91C4.1 13.75 4.12 13.6 4.14 13.46C4.16 13.3 4.17 13.18 4.17 13.1C4.17 13.02 4.18 12.87 4.2 12.65C4.22 12.41 4.24 12.17 4.26 11.93C4.3 11.69 4.33 11.46 4.35 11.24C4.37 11.02 4.38 10.87 4.38 10.79L4.56 9.95C4.56 9.87 4.58 9.69 4.62 9.41C4.68 9.11 4.71 8.91 4.71 8.81C4.73 8.63 4.75 8.46 4.77 8.3C4.79 8.16 4.81 8.04 4.83 7.94C4.85 7.82 4.86 7.74 4.86 7.7C4.86 7.68 4.87 7.65 4.89 7.61C4.89 7.57 4.89 7.54 4.89 7.52C4.91 7.48 4.92 7.44 4.92 7.4L4.95 7.19L3.96 7.64C3.86 7.64 3.71 7.69 3.51 7.79C3.33 7.89 3.19 7.94 3.09 7.94L2.76 8.12C2.68 8.16 2.56 8.21 2.4 8.27C2.26 8.33 2.11 8.38 1.95 8.42C1.81 8.46 1.67 8.5 1.53 8.54C1.41 8.56 1.33 8.57 1.29 8.57H0.78L0.48 8.45C0.38 8.45 0.3 8.4 0.24 8.3L0.12 8.12V7.76L0.48 7.43L0.9 7.25C1 7.21 1.1 7.16 1.2 7.1C1.32 7.04 1.4 6.99 1.44 6.95C1.48 6.95 1.56 6.93 1.68 6.89C1.8 6.83 1.92 6.77 2.04 6.71C2.16 6.63 2.28 6.57 2.4 6.53C2.52 6.47 2.6 6.44 2.64 6.44C2.72 6.4 2.87 6.34 3.09 6.26C3.33 6.18 3.58 6.09 3.84 5.99C4.1 5.89 4.34 5.8 4.56 5.72C4.8 5.62 4.96 5.55 5.04 5.51C5.12 5.47 5.22 5.43 5.34 5.39C5.46 5.35 5.57 5.31 5.67 5.27C5.79 5.23 5.91 5.19 6.03 5.15L6.21 5.27C6.29 5.33 6.39 5.36 6.51 5.36C6.55 5.36 6.59 5.37 6.63 5.39C6.67 5.41 6.71 5.43 6.75 5.45L6.87 5.51L6.93 5.69C6.95 5.73 6.97 5.79 6.99 5.87C7.01 5.93 7.02 5.98 7.02 6.02L6.87 6.68C6.83 6.84 6.8 6.98 6.78 7.1C6.72 7.34 6.69 7.53 6.69 7.67C6.69 7.75 6.66 7.94 6.6 8.24C6.54 8.52 6.51 8.71 6.51 8.81V8.99C6.51 9.07 6.5 9.19 6.48 9.35C6.46 9.49 6.44 9.64 6.42 9.8C6.4 9.94 6.38 10.08 6.36 10.22C6.34 10.34 6.33 10.42 6.33 10.46L6.21 11.3C6.21 11.34 6.2 11.42 6.18 11.54C6.16 11.66 6.14 11.8 6.12 11.96C6.1 12.1 6.08 12.24 6.06 12.38C6.04 12.5 6.03 12.58 6.03 12.62C5.99 12.82 5.93 13.17 5.85 13.67C5.77 14.15 5.69 14.67 5.61 15.23C5.53 15.79 5.45 16.33 5.37 16.85C5.29 17.35 5.23 17.7 5.19 17.9C5.19 17.98 5.13 18.08 5.01 18.2C4.91 18.3 4.81 18.35 4.71 18.35H4.56L4.23 18.23L4.05 17.9L3.9 17.39V15.92ZM30.5759 25.52C30.6159 25.44 30.6659 25.36 30.7259 25.28C30.7659 25.22 30.8059 25.15 30.8459 25.07C30.9059 25.01 30.9559 24.96 30.9959 24.92L32.0759 23.57L32.1959 23.3L32.3459 23.15L32.5259 22.85L32.9459 22.25C32.9859 22.17 33.0559 22.04 33.1559 21.86C33.2759 21.68 33.4059 21.49 33.5459 21.29C33.6859 21.09 33.8159 20.9 33.9359 20.72C34.0559 20.52 34.1359 20.38 34.1759 20.3L33.7859 20.54C33.7459 20.58 33.6459 20.66 33.4859 20.78C33.3259 20.88 33.1459 21 32.9459 21.14C32.7459 21.26 32.5659 21.38 32.4059 21.5C32.2459 21.6 32.1459 21.66 32.1059 21.68C31.9659 21.76 31.8059 21.84 31.6259 21.92C31.4659 21.98 31.2659 22.01 31.0259 22.01C30.6459 22.01 30.4559 21.79 30.4559 21.35C30.4559 21.05 30.5259 20.79 30.6659 20.57C30.8059 20.33 30.9559 20.1 31.1159 19.88C31.1359 19.82 31.1759 19.74 31.2359 19.64C31.2959 19.54 31.3559 19.44 31.4159 19.34C31.4759 19.22 31.5259 19.12 31.5659 19.04C31.6259 18.94 31.6559 18.87 31.6559 18.83C31.6959 18.79 31.7559 18.71 31.8359 18.59C31.9359 18.45 32.0259 18.31 32.1059 18.17C32.2059 18.01 32.2959 17.86 32.3759 17.72C32.4759 17.58 32.5459 17.49 32.5859 17.45C32.5859 17.43 32.6059 17.38 32.6459 17.3C32.7059 17.2 32.7759 17.1 32.8559 17C32.9359 16.88 33.0059 16.77 33.0659 16.67C33.1459 16.55 33.2159 16.45 33.2759 16.37C33.2359 16.41 33.0959 16.5 32.8559 16.64C32.6159 16.76 32.3459 16.9 32.0459 17.06C31.7659 17.2 31.4959 17.34 31.2359 17.48C30.9959 17.6 30.8459 17.68 30.7859 17.72C30.7459 17.72 30.6859 17.73 30.6059 17.75C30.5259 17.77 30.4559 17.79 30.3959 17.81C30.3159 17.85 30.2359 17.88 30.1559 17.9C30.0559 17.9 29.9159 17.91 29.7359 17.93C29.5759 17.95 29.4559 17.96 29.3759 17.96L29.1359 17.75L28.9259 17.6L28.9559 17.09C29.0959 17.03 29.2159 16.96 29.3159 16.88C29.4159 16.82 29.5059 16.76 29.5859 16.7C29.6859 16.64 29.7659 16.59 29.8259 16.55C29.8459 16.51 29.9359 16.45 30.0959 16.37C30.2759 16.27 30.4559 16.17 30.6359 16.07C30.8359 15.97 31.0259 15.88 31.2059 15.8C31.3859 15.72 31.4959 15.67 31.5359 15.65C31.5559 15.61 31.6459 15.55 31.8059 15.47C31.9659 15.37 32.1359 15.28 32.3159 15.2C32.5159 15.1 32.7059 15.01 32.8859 14.93C33.0659 14.85 33.1959 14.79 33.2759 14.75C33.4159 14.71 33.5459 14.66 33.6659 14.6C33.7659 14.56 33.8559 14.52 33.9359 14.48C34.0359 14.44 34.1059 14.42 34.1459 14.42C34.2059 14.42 34.2959 14.4 34.4159 14.36C34.5559 14.32 34.6659 14.3 34.7459 14.3H34.8659C34.9859 14.38 35.0859 14.46 35.1659 14.54L35.3159 14.69V15.26C35.3159 15.3 35.2859 15.37 35.2259 15.47C35.1859 15.55 35.1359 15.65 35.0759 15.77C35.0159 15.89 34.9459 16.01 34.8659 16.13C34.8059 16.25 34.7659 16.35 34.7459 16.43C34.7059 16.47 34.5959 16.63 34.4159 16.91C34.2559 17.17 34.0759 17.47 33.8759 17.81C33.6959 18.13 33.5159 18.43 33.3359 18.71C33.1559 18.99 33.0459 19.16 33.0059 19.22L32.8259 19.58C32.9259 19.54 33.0459 19.47 33.1859 19.37C33.3459 19.27 33.4959 19.18 33.6359 19.1C33.7959 19 33.9259 18.92 34.0259 18.86C34.1459 18.78 34.2259 18.74 34.2659 18.74L34.4459 18.68C34.5659 18.64 34.6659 18.62 34.7459 18.62C34.8059 18.62 34.9159 18.6 35.0759 18.56L35.3159 18.5H35.7659L36.0959 18.62L36.2159 18.74L36.1559 19.43C36.0159 19.65 35.8859 19.87 35.7659 20.09C35.6659 20.27 35.5659 20.45 35.4659 20.63C35.3659 20.81 35.2959 20.95 35.2559 21.05C35.1959 21.11 35.1459 21.17 35.1059 21.23C35.0059 21.33 34.9559 21.43 34.9559 21.53L34.8359 21.65L34.5059 22.25C34.5059 22.29 34.4759 22.35 34.4159 22.43C34.3559 22.51 34.2859 22.6 34.2059 22.7C34.1459 22.78 34.0859 22.87 34.0259 22.97C33.9659 23.05 33.9359 23.11 33.9359 23.15L33.4859 23.87L32.7359 24.83C32.7559 24.83 32.8359 24.8 32.9759 24.74C33.1159 24.68 33.2659 24.61 33.4259 24.53C33.5859 24.45 33.7359 24.38 33.8759 24.32C34.0159 24.26 34.1059 24.23 34.1459 24.23C34.3059 24.17 34.5459 24.08 34.8659 23.96C35.1859 23.84 35.3859 23.78 35.4659 23.78C35.5459 23.74 35.6759 23.69 35.8559 23.63C36.0359 23.59 36.2159 23.55 36.3959 23.51C36.5959 23.47 36.7759 23.43 36.9359 23.39C37.0959 23.37 37.1959 23.36 37.2359 23.36H37.8359C37.8759 23.36 37.9059 23.37 37.9259 23.39C37.9459 23.41 37.9759 23.43 38.0159 23.45L38.1359 23.51L38.1959 23.78L38.0759 24.05C37.9759 24.15 37.8959 24.21 37.8359 24.23C37.7759 24.25 37.6959 24.29 37.5959 24.35C37.5559 24.39 37.4359 24.45 37.2359 24.53C37.0359 24.63 36.8059 24.73 36.5459 24.83C36.3059 24.93 36.0759 25.03 35.8559 25.13C35.6559 25.23 35.5459 25.3 35.5259 25.34C35.4459 25.38 35.2859 25.45 35.0459 25.55C34.8259 25.67 34.5859 25.79 34.3259 25.91C34.0659 26.03 33.8159 26.14 33.5759 26.24C33.3559 26.36 33.2059 26.44 33.1259 26.48C33.0059 26.54 32.9059 26.59 32.8259 26.63C32.7459 26.67 32.6659 26.7 32.5859 26.72C32.5059 26.76 32.4459 26.78 32.4059 26.78C32.3459 26.78 32.2559 26.8 32.1359 26.84L31.9559 26.9H31.2359C31.1759 26.88 31.1159 26.85 31.0559 26.81C31.0159 26.77 30.9659 26.73 30.9059 26.69C30.8659 26.67 30.8259 26.64 30.7859 26.6L30.4859 26.3C30.4859 26.24 30.4759 26.16 30.4559 26.06C30.4559 25.96 30.4559 25.87 30.4559 25.79L30.5759 25.52ZM23.9159 10.34C23.8359 10.34 23.7559 10.3 23.6759 10.22L23.5559 10.1C23.4559 10.02 23.3459 9.87 23.2259 9.65C23.1259 9.43 23.0759 9.28 23.0759 9.2C23.0759 9.16 23.0559 9.08 23.0159 8.96C22.9959 8.84 22.9659 8.67 22.9259 8.45L22.8359 7.55L22.7759 6.86C22.7759 6.68 22.7759 6.44 22.7759 6.14C22.7959 5.84 22.8059 5.55 22.8059 5.27C22.8059 4.97 22.8059 4.71 22.8059 4.49C22.8259 4.25 22.8359 4.11 22.8359 4.07C22.8359 4.03 22.8359 3.97 22.8359 3.89C22.8559 3.79 22.8759 3.69 22.8959 3.59C22.9159 3.47 22.9459 3.34 22.9859 3.2C23.0259 3.14 23.0759 3.07 23.1359 2.99C23.2559 2.83 23.3459 2.75 23.4059 2.75H23.7359L24.0359 3.02L24.2159 3.35L24.1859 7.16C24.1859 7.22 24.1859 7.32 24.1859 7.46C24.1859 7.58 24.1959 7.72 24.2159 7.88C24.2359 8 24.2459 8.12 24.2459 8.24C24.2659 8.36 24.2759 8.44 24.2759 8.48C24.2759 8.56 24.2959 8.71 24.3359 8.93C24.3759 9.13 24.3959 9.27 24.3959 9.35C24.3959 9.41 24.3959 9.5 24.3959 9.62C24.4159 9.72 24.4459 9.8 24.4859 9.86C24.5059 9.9 24.4759 9.98 24.3959 10.1C24.3159 10.22 24.2759 10.29 24.2759 10.31L23.9159 10.34ZM24.7259 10.34C24.7659 10.3 24.8259 10.22 24.9059 10.1C24.9859 9.96 25.0659 9.82 25.1459 9.68C25.2459 9.54 25.3359 9.42 25.4159 9.32C25.5159 9.2 25.5959 9.12 25.6559 9.08C25.7159 9 25.8359 8.89 26.0159 8.75C26.1959 8.59 26.3859 8.42 26.5859 8.24C26.8059 8.06 27.0059 7.9 27.1859 7.76C27.3659 7.6 27.4859 7.48 27.5459 7.4L27.7259 7.22L27.5759 3.2L27.8159 2.24L28.3559 2.03C28.4159 2.07 28.4759 2.12 28.5359 2.18C28.6559 2.3 28.7459 2.38 28.8059 2.42L28.9559 2.75C28.9559 2.81 28.9859 2.93 29.0459 3.11C29.1059 3.29 29.1359 3.41 29.1359 3.47C29.1359 3.57 29.1459 3.71 29.1659 3.89C29.2059 4.07 29.2259 4.19 29.2259 4.25C29.2259 4.29 29.2259 4.41 29.2259 4.61C29.2259 4.79 29.2259 4.99 29.2259 5.21C29.2459 5.41 29.2559 5.61 29.2559 5.81C29.2559 5.99 29.2559 6.09 29.2559 6.11L29.6159 5.87C29.7159 5.87 29.8459 5.82 30.0059 5.72C30.1659 5.62 30.2959 5.57 30.3959 5.57H30.8159L31.1459 5.75L31.2659 6.05V6.17L31.1459 6.41L30.9659 6.53L30.5459 6.89C30.4859 6.95 30.4259 7 30.3659 7.04C30.2859 7.12 30.1859 7.18 30.0659 7.22C30.0059 7.26 29.8959 7.35 29.7359 7.49C29.5959 7.61 29.4859 7.69 29.4059 7.73C29.4059 7.81 29.3959 7.94 29.3759 8.12C29.3759 8.3 29.3759 8.49 29.3759 8.69C29.3759 8.89 29.3659 9.08 29.3459 9.26C29.3459 9.44 29.3459 9.57 29.3459 9.65C29.3459 9.69 29.3359 9.77 29.3159 9.89C29.2959 10.01 29.2759 10.14 29.2559 10.28C29.2559 10.42 29.2459 10.56 29.2259 10.7C29.2059 10.82 29.1959 10.9 29.1959 10.94C29.1959 11 29.1459 11.17 29.0459 11.45C28.9459 11.73 28.8959 11.94 28.8959 12.08C28.8959 12.12 28.8859 12.17 28.8659 12.23C28.8459 12.29 28.8259 12.34 28.8059 12.38C28.7859 12.44 28.7659 12.49 28.7459 12.53C28.7059 12.61 28.6459 12.71 28.5659 12.83C28.5059 12.95 28.4459 13.08 28.3859 13.22C28.3059 13.38 28.2259 13.55 28.1459 13.73L27.3959 14.45C27.3359 14.55 27.1959 14.65 26.9759 14.75C26.7559 14.85 26.6059 14.9 26.5259 14.9H25.4459L25.2059 14.75L24.7259 14.45L24.5459 14.27C24.5459 14.17 24.4959 14.01 24.3959 13.79C24.2959 13.57 24.2459 13.43 24.2459 13.37C24.2459 13.29 24.2159 13.16 24.1559 12.98C24.0959 12.8 24.0659 12.68 24.0659 12.62L24.1859 11.81L24.3059 11.21L24.4259 10.82L24.7259 10.34ZM34.7159 6.74C34.7159 6.62 34.7159 6.41 34.7159 6.11C34.7359 5.79 34.7559 5.46 34.7759 5.12C34.7959 4.76 34.8059 4.43 34.8059 4.13C34.8259 3.81 34.8359 3.59 34.8359 3.47L34.9559 3.02L35.1359 2.75L35.2859 2.6H35.7359L36.0359 2.87L36.0959 3.05C36.1359 3.17 36.1559 3.27 36.1559 3.35C36.1559 3.43 36.1559 3.55 36.1559 3.71C36.1759 3.87 36.1959 4.04 36.2159 4.22C36.2359 4.4 36.2459 4.58 36.2459 4.76C36.2659 4.92 36.2759 5.03 36.2759 5.09L36.3659 6.86C36.4259 6.82 36.5659 6.75 36.7859 6.65C37.0259 6.53 37.1859 6.44 37.2659 6.38L37.5959 6.29C37.6359 6.29 37.6859 6.27 37.7459 6.23C37.8259 6.19 37.9059 6.15 37.9859 6.11C38.0859 6.05 38.1659 6.01 38.2259 5.99C38.3059 5.95 38.3659 5.94 38.4059 5.96C38.4859 5.92 38.5759 5.88 38.6759 5.84C38.7759 5.8 38.8759 5.76 38.9759 5.72C39.0759 5.66 39.1859 5.61 39.3059 5.57C39.3459 5.57 39.3959 5.58 39.4559 5.6C39.5359 5.6 39.6159 5.6 39.6959 5.6C39.7759 5.62 39.8659 5.63 39.9659 5.63L39.9359 6.38L39.8159 6.53L39.0359 7.04L38.8559 7.13L38.0759 7.67L37.4159 8.12L37.0859 8.3C37.0459 8.34 36.9859 8.39 36.9059 8.45C36.8259 8.49 36.7359 8.53 36.6359 8.57C36.5359 8.63 36.4259 8.68 36.3059 8.72V12.17L36.2459 12.8L35.7959 13.13H35.5559L35.2559 13.01C35.2159 12.95 35.1859 12.89 35.1659 12.83C35.1259 12.71 35.1059 12.61 35.1059 12.53C35.1059 12.47 35.0959 12.37 35.0759 12.23C35.0559 12.07 35.0259 11.91 34.9859 11.75C34.9659 11.59 34.9459 11.45 34.9259 11.33C34.9059 11.19 34.8959 11.1 34.8959 11.06C34.8959 11.04 34.8859 10.97 34.8659 10.85C34.8659 10.73 34.8559 10.6 34.8359 10.46C34.8159 10.32 34.7959 10.18 34.7759 10.04C34.7759 9.9 34.7759 9.8 34.7759 9.74C34.7759 9.52 34.7659 9.25 34.7459 8.93C34.7259 8.61 34.7159 8.42 34.7159 8.36V6.74ZM25.7759 13.4H26.2559L26.5559 13.22C26.5959 13.18 26.6259 13.13 26.6459 13.07C26.6859 13.01 26.7259 12.95 26.7659 12.89C26.8059 12.81 26.8459 12.74 26.8859 12.68C26.9459 12.54 27.0059 12.41 27.0659 12.29C27.1059 12.19 27.1459 12.09 27.1859 11.99C27.2259 11.89 27.2459 11.82 27.2459 11.78C27.2459 11.72 27.2659 11.63 27.3059 11.51C27.3659 11.37 27.3959 11.26 27.3959 11.18C27.3959 11.12 27.4159 10.98 27.4559 10.76C27.5159 10.54 27.5459 10.39 27.5459 10.31L27.6659 9.17L26.3759 10.64C26.2759 10.8 26.1859 10.95 26.1059 11.09C26.0259 11.21 25.9559 11.33 25.8959 11.45C25.8359 11.55 25.7859 11.62 25.7459 11.66C25.6659 11.84 25.6159 12 25.5959 12.14C25.5759 12.22 25.5659 12.31 25.5659 12.41L25.5959 13.01L25.7759 13.4ZM55.83 25.13C55.85 25.09 55.87 25.06 55.89 25.04C55.91 25.02 55.92 24.99 55.92 24.95L56.4 24.35C56.46 24.31 56.54 24.23 56.64 24.11C56.74 24.01 56.84 23.9 56.94 23.78C57.04 23.66 57.14 23.54 57.24 23.42C57.34 23.32 57.42 23.25 57.48 23.21C57.54 23.17 57.65 23.06 57.81 22.88C57.99 22.7 58.1 22.58 58.14 22.52C58.2 22.48 58.3 22.38 58.44 22.22C58.58 22.04 58.67 21.93 58.71 21.89L58.95 21.65L59.22 21.29C59.26 21.23 59.34 21.13 59.46 20.99C59.6 20.83 59.74 20.66 59.88 20.48C60.04 20.3 60.18 20.13 60.3 19.97C60.44 19.81 60.54 19.7 60.6 19.64L60.15 19.85C60.09 19.89 59.97 19.93 59.79 19.97C59.63 20.01 59.51 20.05 59.43 20.09C59.39 20.15 59.3 20.22 59.16 20.3C59.04 20.36 58.96 20.39 58.92 20.39L58.47 20.69C58.43 20.69 58.29 20.74 58.05 20.84C57.81 20.94 57.65 21.01 57.57 21.05C57.45 21.13 57.32 21.19 57.18 21.23C57.1 21.25 57.03 21.27 56.97 21.29C56.93 21.29 56.86 21.28 56.76 21.26C56.68 21.22 56.62 21.2 56.58 21.2L56.43 21.05C56.33 20.95 56.26 20.86 56.22 20.78L56.1 20.6L56.13 20.24C56.13 20.18 56.16 20.08 56.22 19.94C56.3 19.78 56.36 19.68 56.4 19.64C56.52 19.5 56.63 19.38 56.73 19.28C56.83 19.18 56.92 19.09 57 19.01C57.08 18.91 57.15 18.83 57.21 18.77L57.6 18.41L57.75 18.11C57.77 18.09 57.84 18.01 57.96 17.87C58.1 17.73 58.23 17.58 58.35 17.42C58.49 17.26 58.62 17.12 58.74 17C58.86 16.86 58.93 16.78 58.95 16.76L59.1 16.46C59.1 16.42 59.14 16.36 59.22 16.28C59.3 16.18 59.36 16.11 59.4 16.07L59.91 15.47C59.87 15.47 59.75 15.53 59.55 15.65C59.37 15.75 59.26 15.8 59.22 15.8C59.18 15.8 59.11 15.83 59.01 15.89C58.93 15.93 58.83 15.98 58.71 16.04C58.61 16.1 58.51 16.16 58.41 16.22C58.33 16.26 58.28 16.28 58.26 16.28L57.96 16.4L57.48 16.58L57.21 16.67C57.15 16.71 57.08 16.74 57 16.76C56.84 16.8 56.74 16.82 56.7 16.82C56.66 16.82 56.58 16.84 56.46 16.88C56.36 16.92 56.29 16.94 56.25 16.94H55.65L55.38 16.82L55.14 16.67L55.08 16.55C55.06 16.51 55.05 16.46 55.05 16.4V16.16C55.09 16.12 55.15 16.05 55.23 15.95C55.33 15.85 55.4 15.8 55.44 15.8L55.92 15.71C55.96 15.71 56.04 15.69 56.16 15.65C56.22 15.63 56.27 15.61 56.31 15.59C56.41 15.55 56.58 15.49 56.82 15.41C57.08 15.33 57.23 15.27 57.27 15.23L59.22 14.27L59.49 14.06L59.82 13.97L60.18 13.79L60.48 13.7C60.52 13.7 60.63 13.65 60.81 13.55C60.99 13.43 61.11 13.37 61.17 13.37C61.19 13.37 61.28 13.35 61.44 13.31C61.52 13.29 61.59 13.26 61.65 13.22C61.73 13.22 61.83 13.19 61.95 13.13L62.19 13.01H62.4C62.44 13.01 62.5 13.05 62.58 13.13L62.67 13.22L62.88 13.46V13.79C62.84 13.83 62.8 13.88 62.76 13.94C62.7 14.04 62.67 14.11 62.67 14.15C62.67 14.21 62.59 14.33 62.43 14.51C62.27 14.67 62.19 14.77 62.19 14.81L62.07 15.05L61.92 15.23C61.9 15.25 61.85 15.32 61.77 15.44C61.69 15.56 61.59 15.69 61.47 15.83C61.37 15.97 61.27 16.11 61.17 16.25C61.09 16.39 61.02 16.5 60.96 16.58L60.72 16.82L60.03 17.72L59.94 17.9C59.9 18 59.79 18.12 59.61 18.26C59.45 18.4 59.35 18.52 59.31 18.62L59.97 18.41C60.01 18.41 60.09 18.38 60.21 18.32C60.33 18.26 60.42 18.23 60.48 18.23C60.5 18.21 60.54 18.19 60.6 18.17C60.68 18.13 60.76 18.11 60.84 18.11C60.94 18.11 61.03 18.1 61.11 18.08C61.17 18.06 61.24 18.04 61.32 18.02L62.67 17.87L62.79 17.93C62.83 17.95 62.9 17.96 63 17.96C63.04 17.96 63.08 17.98 63.12 18.02C63.14 18.04 63.16 18.05 63.18 18.05L63.27 18.14C63.29 18.18 63.31 18.22 63.33 18.26C63.35 18.28 63.36 18.3 63.36 18.32V18.53L63.3 18.74C63.24 18.84 63.18 18.93 63.12 19.01C63.02 19.17 62.91 19.29 62.79 19.37L62.49 19.64L61.71 20.54C61.63 20.6 61.53 20.7 61.41 20.84C61.31 20.96 61.2 21.1 61.08 21.26C60.98 21.4 60.89 21.53 60.81 21.65C60.73 21.77 60.68 21.85 60.66 21.89L60.48 22.16L60.3 22.34C60.24 22.4 60.14 22.53 60 22.73C59.86 22.93 59.76 23.06 59.7 23.12L58.95 23.99L58.71 24.26H58.86C58.9 24.26 59 24.23 59.16 24.17C59.34 24.13 59.45 24.11 59.49 24.11C59.55 24.11 59.68 24.09 59.88 24.05C60.1 24.01 60.24 23.99 60.3 23.99L60.57 23.87H61.05L61.32 23.81C61.38 23.81 61.48 23.8 61.62 23.78C61.76 23.76 61.9 23.73 62.04 23.69C62.2 23.67 62.35 23.65 62.49 23.63C62.63 23.61 62.73 23.6 62.79 23.6H63.27C63.31 23.6 63.45 23.58 63.69 23.54C63.93 23.52 64.08 23.51 64.14 23.51H65.79L66.03 23.6C66.09 23.6 66.14 23.62 66.18 23.66C66.2 23.68 66.22 23.69 66.24 23.69L66.33 23.87V24.26C66.29 24.3 66.24 24.34 66.18 24.38C66.08 24.44 66.01 24.47 65.97 24.47C65.95 24.47 65.87 24.48 65.73 24.5C65.59 24.54 65.44 24.58 65.28 24.62C65.14 24.66 65 24.69 64.86 24.71C64.72 24.75 64.64 24.77 64.62 24.77C64.6 24.77 64.53 24.78 64.41 24.8C64.29 24.84 64.16 24.87 64.02 24.89C63.9 24.93 63.78 24.96 63.66 24.98C63.54 25.02 63.47 25.04 63.45 25.04L62.94 25.13C62.9 25.13 62.79 25.16 62.61 25.22C62.45 25.3 62.35 25.34 62.31 25.34L62.07 25.46C62.05 25.46 61.99 25.46 61.89 25.46C61.81 25.48 61.72 25.5 61.62 25.52C61.52 25.54 61.42 25.55 61.32 25.55C61.22 25.57 61.16 25.58 61.14 25.58C61.1 25.58 61 25.61 60.84 25.67C60.7 25.75 60.61 25.79 60.57 25.79C60.53 25.79 60.4 25.81 60.18 25.85C59.96 25.91 59.82 25.94 59.76 25.94L59.61 26.09C59.55 26.09 59.42 26.12 59.22 26.18C59.02 26.24 58.9 26.27 58.86 26.27H58.41C58.39 26.27 58.33 26.28 58.23 26.3C58.15 26.32 58.06 26.34 57.96 26.36C57.86 26.38 57.76 26.4 57.66 26.42C57.56 26.44 57.5 26.45 57.48 26.45H57.36C57.3 26.45 57.22 26.45 57.12 26.45C57.04 26.45 56.95 26.44 56.85 26.42L56.49 26.36C56.41 26.36 56.35 26.35 56.31 26.33C56.27 26.31 56.24 26.29 56.22 26.27L56.1 26.15C56.06 26.11 56.02 26.07 55.98 26.03C55.96 26.01 55.94 25.98 55.92 25.94L55.74 25.67V25.22L55.83 25.13ZM49.5 14.45C49.5 14.37 49.52 14.24 49.56 14.06C49.6 13.88 49.64 13.7 49.68 13.52C49.72 13.32 49.76 13.14 49.8 12.98C49.84 12.82 49.86 12.73 49.86 12.71C49.86 12.69 49.88 12.62 49.92 12.5C49.96 12.38 50.01 12.25 50.07 12.11C50.13 11.97 50.19 11.83 50.25 11.69C50.31 11.55 50.35 11.44 50.37 11.36C50.37 11.34 50.37 11.3 50.37 11.24C50.39 11.16 50.42 11.09 50.46 11.03L50.58 10.79L50.73 10.46L50.82 10.31C50.82 10.25 50.85 10.15 50.91 10.01C50.99 9.87 51.03 9.78 51.03 9.74C51.05 9.72 51.08 9.65 51.12 9.53C51.18 9.39 51.24 9.25 51.3 9.11C51.36 8.97 51.41 8.84 51.45 8.72C51.51 8.58 51.56 8.5 51.6 8.48C51.6 8.46 51.62 8.41 51.66 8.33C51.7 8.25 51.74 8.17 51.78 8.09C51.84 8.01 51.89 7.94 51.93 7.88C51.97 7.8 51.99 7.75 51.99 7.73C52.03 7.69 52.1 7.56 52.2 7.34C52.32 7.12 52.4 6.99 52.44 6.95C52.44 6.91 52.5 6.79 52.62 6.59C52.76 6.37 52.83 6.23 52.83 6.17C52.83 6.15 52.85 6.11 52.89 6.05C52.95 5.97 53.01 5.9 53.07 5.84C53.15 5.76 53.21 5.69 53.25 5.63C53.31 5.57 53.34 5.53 53.34 5.51C53.36 5.45 53.39 5.38 53.43 5.3C53.51 5.14 53.57 5.05 53.61 5.03L53.7 4.82L54 4.43C54 4.39 54.06 4.3 54.18 4.16C54.3 4.02 54.36 3.92 54.36 3.86C54.38 3.84 54.41 3.81 54.45 3.77C54.49 3.71 54.53 3.66 54.57 3.62C54.61 3.56 54.65 3.51 54.69 3.47L55.14 2.99L55.32 2.9H55.56L55.71 2.99L55.8 3.08L55.89 3.68L55.74 3.98C55.64 4.2 55.57 4.39 55.53 4.55L55.41 4.73C55.37 4.81 55.33 4.91 55.29 5.03C55.25 5.13 55.21 5.23 55.17 5.33C55.11 5.45 55.06 5.57 55.02 5.69L54.81 6.14C54.87 6.28 54.94 6.41 55.02 6.53C55.08 6.63 55.13 6.73 55.17 6.83C55.23 6.93 55.28 7 55.32 7.04C55.32 7.06 55.34 7.11 55.38 7.19C55.44 7.27 55.5 7.36 55.56 7.46C55.62 7.56 55.67 7.65 55.71 7.73C55.77 7.81 55.8 7.86 55.8 7.88L56.01 8.3L56.1 8.39C56.1 8.43 56.15 8.53 56.25 8.69C56.35 8.83 56.4 8.93 56.4 8.99L56.58 9.23C56.62 9.29 56.68 9.4 56.76 9.56C56.86 9.7 56.91 9.79 56.91 9.83C56.91 9.87 56.92 9.91 56.94 9.95C56.98 10.03 57 10.09 57 10.13L57.06 10.49L57.15 10.7C57.15 10.74 57.17 10.8 57.21 10.88L57.27 11C57.27 11.04 57.28 11.15 57.3 11.33C57.34 11.51 57.36 11.62 57.36 11.66C57.36 11.7 57.37 11.79 57.39 11.93C57.43 12.07 57.45 12.18 57.45 12.26C57.45 12.32 57.43 12.41 57.39 12.53C57.37 12.59 57.36 12.65 57.36 12.71L57.24 12.83C57.16 12.91 57.1 12.95 57.06 12.95H56.76C56.72 12.93 56.68 12.9 56.64 12.86C56.6 12.82 56.57 12.8 56.55 12.8C56.53 12.78 56.5 12.75 56.46 12.71L56.37 12.62C56.33 12.56 56.25 12.41 56.13 12.17C56.01 11.93 55.93 11.76 55.89 11.66C55.89 11.62 55.83 11.51 55.71 11.33C55.61 11.15 55.56 11.04 55.56 11C55.56 10.94 55.5 10.83 55.38 10.67C55.28 10.49 55.23 10.38 55.23 10.34L54.39 8.57L54.21 8.18L54.09 8.03L53.94 7.7C53.9 7.74 53.83 7.84 53.73 8C53.65 8.14 53.61 8.24 53.61 8.3C53.61 8.34 53.58 8.44 53.52 8.6C53.46 8.74 53.43 8.83 53.43 8.87C53.43 8.93 53.36 9.03 53.22 9.17C53.08 9.31 53.01 9.41 53.01 9.47C52.97 9.75 52.9 9.97 52.8 10.13C52.7 10.27 52.65 10.36 52.65 10.4C52.59 10.5 52.51 10.65 52.41 10.85C52.31 11.03 52.21 11.23 52.11 11.45C52.01 11.65 51.92 11.84 51.84 12.02C51.76 12.18 51.71 12.29 51.69 12.35L50.58 14.63L50.43 14.81L50.28 15.05C50.24 15.07 50.2 15.08 50.16 15.08C50.12 15.1 50.07 15.11 50.01 15.11H49.77L49.62 14.96L49.56 14.84C49.52 14.76 49.5 14.69 49.5 14.63V14.45ZM61.98 11.3C61.98 11.28 61.98 11.2 61.98 11.06C61.98 10.9 61.98 10.74 61.98 10.58C62 10.42 62.01 10.27 62.01 10.13C62.01 9.97 62.01 9.88 62.01 9.86V9.56C62.01 9.54 62.01 9.48 62.01 9.38C62.03 9.26 62.04 9.14 62.04 9.02C62.04 8.88 62.04 8.75 62.04 8.63C62.06 8.51 62.07 8.44 62.07 8.42L62.04 8.21C62 8.07 61.98 7.88 61.98 7.64C62 7.38 62.01 7.22 62.01 7.16V6.71C62.01 6.63 62.02 6.51 62.04 6.35C62.06 6.17 62.07 6.06 62.07 6.02L62.04 5.12C62.04 5.08 62.05 5.01 62.07 4.91C62.11 4.81 62.13 4.74 62.13 4.7L62.07 4.37C62.13 4.09 62.17 3.81 62.19 3.53C62.21 3.23 62.27 2.92 62.37 2.6C62.37 2.46 62.38 2.35 62.4 2.27C62.42 2.19 62.44 2.12 62.46 2.06L62.64 1.85L62.82 1.73H63.24L63.3 1.79C63.36 1.85 63.39 1.89 63.39 1.91L63.51 2.09L63.6 3.05C63.6 3.11 63.6 3.22 63.6 3.38C63.62 3.52 63.64 3.68 63.66 3.86C63.68 4.02 63.69 4.18 63.69 4.34C63.71 4.48 63.72 4.58 63.72 4.64L63.81 7.55C63.81 7.59 63.8 7.74 63.78 8C63.76 8.24 63.74 8.51 63.72 8.81C63.7 9.09 63.68 9.36 63.66 9.62C63.64 9.88 63.63 10.04 63.63 10.1C63.63 10.18 63.62 10.26 63.6 10.34C63.56 10.54 63.53 10.67 63.51 10.73L63.39 11.06V11.15C63.35 11.21 63.32 11.27 63.3 11.33C63.26 11.45 63.24 11.54 63.24 11.6C63.24 11.62 63.23 11.64 63.21 11.66C63.19 11.68 63.17 11.71 63.15 11.75L63.06 11.84L62.85 11.96L62.37 11.99C62.35 11.95 62.32 11.91 62.28 11.87C62.2 11.79 62.15 11.73 62.13 11.69C62.11 11.67 62.09 11.64 62.07 11.6C62.03 11.52 62.01 11.45 62.01 11.39L61.98 11.3ZM70.9636 15.35C70.9636 15.27 70.9636 15.18 70.9636 15.08C70.9836 14.96 70.9936 14.87 70.9936 14.81C70.9936 14.77 70.9936 14.66 70.9936 14.48C71.0136 14.28 71.0236 14.07 71.0236 13.85C71.0236 13.63 71.0236 13.43 71.0236 13.25C71.0236 13.05 71.0236 12.92 71.0236 12.86C71.0236 12.84 71.0236 12.76 71.0236 12.62C71.0436 12.46 71.0536 12.28 71.0536 12.08L70.5736 12.29C70.5136 12.29 70.4136 12.33 70.2736 12.41C70.1536 12.47 70.0236 12.54 69.8836 12.62C69.7436 12.7 69.6136 12.78 69.4936 12.86C69.3736 12.92 69.2936 12.95 69.2536 12.95C69.1936 12.99 69.1036 13.03 68.9836 13.07C68.8836 13.09 68.7736 13.12 68.6536 13.16C68.5136 13.2 68.3736 13.23 68.2336 13.25C68.1136 13.23 68.0136 13.2 67.9336 13.16C67.8536 13.12 67.7736 13.09 67.6936 13.07C67.6336 13.03 67.5836 12.99 67.5436 12.95L67.3636 12.62V11.96L68.4136 10.85C68.4736 10.73 68.5436 10.62 68.6236 10.52C68.7036 10.42 68.7936 10.32 68.8936 10.22C68.9936 10.1 69.1136 9.97 69.2536 9.83L69.4036 9.71C69.4436 9.67 69.5036 9.61 69.5836 9.53C69.6836 9.43 69.7736 9.33 69.8536 9.23C69.9536 9.13 70.0336 9.04 70.0936 8.96C70.1736 8.86 70.2136 8.79 70.2136 8.75C70.2336 8.71 70.2936 8.63 70.3936 8.51C70.4936 8.37 70.5936 8.23 70.6936 8.09C70.8136 7.95 70.9236 7.82 71.0236 7.7C71.1236 7.56 71.2036 7.47 71.2636 7.43L71.3836 7.1C71.3036 7.14 71.1736 7.2 70.9936 7.28C70.8336 7.34 70.6636 7.41 70.4836 7.49C70.3236 7.55 70.1636 7.62 70.0036 7.7C69.8636 7.78 69.7636 7.83 69.7036 7.85L69.2536 8.18L68.6236 8.33H67.9636C67.8836 8.27 67.8136 8.21 67.7536 8.15C67.6336 8.03 67.5736 7.92 67.5736 7.82V7.37C67.5736 7.27 67.6536 7.11 67.8136 6.89C67.9936 6.65 68.1336 6.5 68.2336 6.44L68.3836 6.29L68.5636 6.02L68.7136 5.81L69.1036 5.39C69.1036 5.29 69.1636 5.18 69.2836 5.06C69.4236 4.92 69.4936 4.81 69.4936 4.73C69.5136 4.69 69.6036 4.57 69.7636 4.37C69.9436 4.17 70.1236 3.95 70.3036 3.71C70.5036 3.47 70.6836 3.24 70.8436 3.02C71.0236 2.8 71.1336 2.65 71.1736 2.57L70.3936 2.81L69.7036 3.08C69.6636 3.08 69.5636 3.11 69.4036 3.17C69.2636 3.23 69.1036 3.31 68.9236 3.41C68.7436 3.49 68.5536 3.58 68.3536 3.68C68.1736 3.76 68.0236 3.82 67.9036 3.86L67.4236 3.89L67.2436 3.83C67.1236 3.79 67.0236 3.77 66.9436 3.77L66.6436 3.44L66.7636 2.9C66.8236 2.88 66.8936 2.85 66.9736 2.81C67.0936 2.75 67.1936 2.68 67.2736 2.6C67.3936 2.56 67.4936 2.51 67.5736 2.45C67.6536 2.41 67.7236 2.38 67.7836 2.36C67.8636 2.32 67.9236 2.3 67.9636 2.3C68.0436 2.22 68.2036 2.13 68.4436 2.03C68.7036 1.93 68.8836 1.88 68.9836 1.88C69.1636 1.84 69.3336 1.79 69.4936 1.73C69.7936 1.63 70.0436 1.54 70.2436 1.46C70.2836 1.46 70.3436 1.45 70.4236 1.43C70.5236 1.41 70.6236 1.38 70.7236 1.34L71.0836 1.22C71.1436 1.22 71.2636 1.2 71.4436 1.16C71.6236 1.1 71.8136 1.04 72.0136 0.979999C72.2336 0.919999 72.4336 0.869999 72.6136 0.829999C72.8136 0.769999 72.9536 0.739999 73.0336 0.739999L73.4236 0.889999C73.5036 0.889999 73.5636 0.959999 73.6036 1.1C73.6236 1.18 73.6436 1.25 73.6636 1.31L73.5736 1.73L73.3936 2.06L72.8836 2.69C72.7236 2.93 72.5136 3.21 72.2536 3.53C72.0136 3.85 71.7636 4.17 71.5036 4.49C71.2636 4.81 71.0236 5.12 70.7836 5.42C70.5636 5.7 70.3836 5.94 70.2436 6.14L70.6636 5.96C70.7436 5.88 70.8936 5.81 71.1136 5.75C71.2136 5.71 71.3436 5.67 71.5036 5.63C71.5836 5.59 71.7036 5.54 71.8636 5.48C72.0436 5.42 72.2236 5.36 72.4036 5.3C72.6236 5.24 72.8436 5.18 73.0636 5.12L73.3636 5.24C73.5036 5.3 73.6336 5.33 73.7536 5.33L73.9636 5.57L74.0236 5.96L73.9036 6.2C73.8636 6.26 73.8236 6.33 73.7836 6.41C73.7636 6.47 73.7336 6.52 73.6936 6.56C73.6136 6.66 73.5336 6.75 73.4536 6.83C73.3936 6.91 73.3336 6.98 73.2736 7.04C73.2336 7.1 73.2136 7.15 73.2136 7.19L72.7336 7.85L72.2236 8.51L71.6236 9.23L71.3836 9.53L70.3036 10.67L71.5036 10.19C71.9036 10.09 72.3336 9.95 72.7936 9.77C73.2536 9.59 73.7136 9.45 74.1736 9.35C74.2136 9.35 74.2636 9.35 74.3236 9.35C74.4036 9.33 74.4936 9.31 74.5936 9.29C74.6936 9.27 74.8136 9.24 74.9536 9.2H75.6136L76.1236 9.53L76.0336 9.68L75.8836 9.98C75.8036 9.98 75.6636 10.06 75.4636 10.22C75.2836 10.38 75.1436 10.46 75.0436 10.46C75.0036 10.46 74.9036 10.5 74.7436 10.58C74.5836 10.64 74.3936 10.72 74.1736 10.82C73.9736 10.9 73.7636 10.99 73.5436 11.09C73.3436 11.17 73.1836 11.23 73.0636 11.27L72.5836 11.42L72.5236 11.45C72.5436 11.61 72.5436 11.81 72.5236 12.05C72.5036 12.27 72.5036 12.41 72.5236 12.47L72.5836 13.07C72.6036 13.11 72.6036 13.16 72.5836 13.22C72.5836 13.28 72.5836 13.34 72.5836 13.4C72.5636 13.48 72.5536 13.56 72.5536 13.64V13.7C72.5736 13.74 72.5636 13.86 72.5236 14.06C72.5036 14.26 72.5036 14.38 72.5236 14.42L72.5536 14.69L72.5236 14.87L72.6436 14.81C72.6636 14.81 72.7136 14.8 72.7936 14.78C72.8936 14.76 72.9936 14.74 73.0936 14.72C73.2136 14.68 73.3136 14.65 73.3936 14.63C73.4736 14.59 73.5236 14.57 73.5436 14.57C73.5836 14.57 73.6436 14.55 73.7236 14.51C73.8236 14.47 73.8936 14.45 73.9336 14.45C74.5536 14.23 75.0136 14.09 75.3136 14.03C75.6136 13.95 75.9036 13.91 76.1836 13.91L76.5736 13.82C76.5936 13.82 76.6336 13.82 76.6936 13.82C76.7536 13.82 76.8236 13.81 76.9036 13.79C76.9836 13.77 77.0736 13.75 77.1736 13.73H77.8636C77.9036 13.75 77.9436 13.76 77.9836 13.76C78.0236 13.78 78.0936 13.79 78.1936 13.79L78.4036 13.88L78.5236 13.97L78.4936 14.15L78.4036 14.21L78.1936 14.42L77.9536 14.54C77.9136 14.54 77.8236 14.57 77.6836 14.63C77.5636 14.67 77.4736 14.69 77.4136 14.69L77.2036 14.81C77.1436 14.85 77.0636 14.9 76.9636 14.96C76.8636 15 76.7536 15.05 76.6336 15.11C76.5336 15.15 76.4336 15.19 76.3336 15.23C76.2536 15.25 76.2036 15.26 76.1836 15.26L75.7336 15.35C75.7136 15.35 75.6636 15.37 75.5836 15.41C75.5036 15.45 75.4136 15.5 75.3136 15.56C75.2136 15.6 75.1236 15.64 75.0436 15.68C74.9636 15.72 74.9136 15.74 74.8936 15.74C74.8736 15.78 74.8036 15.82 74.6836 15.86C74.5836 15.88 74.4736 15.91 74.3536 15.95C74.2336 15.97 74.1236 15.99 74.0236 16.01C73.9236 16.03 73.8636 16.05 73.8436 16.07C73.7836 16.07 73.6836 16.11 73.5436 16.19C73.4236 16.25 73.3336 16.28 73.2736 16.28L73.0636 16.37C73.0236 16.41 72.9336 16.45 72.7936 16.49C72.6536 16.53 72.5036 16.58 72.3436 16.64C72.1836 16.7 72.0336 16.76 71.8936 16.82C71.7536 16.86 71.6636 16.89 71.6236 16.91L71.2036 17.06L70.7836 17.24C70.7636 17.26 70.7336 17.28 70.6936 17.3C70.6536 17.32 70.5936 17.33 70.5136 17.33L70.0936 17.42C70.0536 17.42 69.9536 17.46 69.7936 17.54C69.6336 17.62 69.5336 17.66 69.4936 17.66L68.9536 17.75C68.9136 17.77 68.7836 17.82 68.5636 17.9C68.3636 17.96 68.2436 17.99 68.2036 17.99L66.7636 18.02C66.7236 18 66.6436 17.98 66.5236 17.96C66.4236 17.94 66.3436 17.93 66.2836 17.93L66.1336 17.81L66.0736 17.78V17.3L66.2536 17.09C66.2936 17.05 66.3436 17.01 66.4036 16.97C66.4436 16.93 66.4836 16.9 66.5236 16.88C66.5636 16.84 66.6036 16.82 66.6436 16.82C66.6836 16.86 66.7736 16.85 66.9136 16.79C67.0536 16.73 67.1536 16.7 67.2136 16.7C67.2336 16.7 67.2936 16.68 67.3936 16.64C67.5136 16.58 67.6436 16.53 67.7836 16.49C67.9236 16.43 68.0436 16.38 68.1436 16.34C68.2636 16.28 68.3336 16.25 68.3536 16.25L68.5936 16.13L68.9536 16.01C68.9736 16.01 69.0336 16 69.1336 15.98C69.2336 15.94 69.3436 15.9 69.4636 15.86C69.5836 15.82 69.7036 15.78 69.8236 15.74C69.9436 15.7 70.0236 15.67 70.0636 15.65C70.2036 15.59 70.3636 15.53 70.5436 15.47C70.7236 15.41 70.8436 15.38 70.9036 15.38L70.9636 15.35ZM73.6336 20.09L71.9536 20.87L71.8036 20.93L71.5636 21.02L70.6936 21.41L70.3936 21.47C70.1936 21.51 70.0736 21.53 70.0336 21.53C69.9736 21.53 69.8836 21.55 69.7636 21.59C69.7036 21.61 69.6436 21.62 69.5836 21.62L69.0136 21.59L68.7736 21.5L68.7436 21.23V20.87C68.7436 20.77 68.7536 20.7 68.7736 20.66L68.8336 20.54C68.8936 20.5 68.9636 20.45 69.0436 20.39C69.2036 20.27 69.3136 20.18 69.3736 20.12L69.6436 20C69.7036 19.98 69.8036 19.94 69.9436 19.88C70.1036 19.8 70.2636 19.72 70.4236 19.64C70.5836 19.56 70.7336 19.49 70.8736 19.43C71.0336 19.37 71.1436 19.33 71.2036 19.31C71.3436 19.27 71.4836 19.21 71.6236 19.13C71.7436 19.09 71.8636 19.04 71.9836 18.98C72.1036 18.92 72.1936 18.87 72.2536 18.83C72.3136 18.79 72.3936 18.75 72.4936 18.71C72.6136 18.65 72.7236 18.6 72.8236 18.56C72.9436 18.5 73.0536 18.45 73.1536 18.41C73.2536 18.37 73.3136 18.35 73.3336 18.35C73.4136 18.35 73.5436 18.32 73.7236 18.26C73.9036 18.18 74.0236 18.14 74.0836 18.14C74.1236 18.14 74.2436 18.11 74.4436 18.05C74.6636 17.97 74.8136 17.93 74.8936 17.93L75.3436 17.96L75.6736 18.2L75.8536 18.44V18.65L75.7336 18.95C75.6736 19.11 75.6436 19.22 75.6436 19.28L75.6136 20.9C75.6136 20.98 75.6036 21.17 75.5836 21.47C75.5836 21.75 75.5836 22.06 75.5836 22.4C75.5836 22.72 75.5736 23.02 75.5536 23.3C75.5536 23.58 75.5536 23.75 75.5536 23.81V24.17C75.5536 24.27 75.5436 24.43 75.5236 24.65C75.5036 24.87 75.4836 25.1 75.4636 25.34C75.4636 25.6 75.4536 25.84 75.4336 26.06C75.4136 26.28 75.4036 26.43 75.4036 26.51L75.2836 26.87L75.0436 27.11L74.6236 27.23H74.5036L74.2936 26.99L74.1436 26.78C74.1436 26.74 74.1336 26.66 74.1136 26.54C74.0936 26.44 74.0736 26.32 74.0536 26.18C74.0336 26.04 74.0136 25.9 73.9936 25.76C73.9736 25.64 73.9636 25.54 73.9636 25.46C73.9636 25.32 73.9636 25.12 73.9636 24.86C73.9636 24.62 73.9536 24.36 73.9336 24.08C73.9336 23.82 73.9336 23.58 73.9336 23.36C73.9336 23.16 73.9336 23.03 73.9336 22.97V20L73.6336 20.09Z" fill="black"/>
</svg>
