<svg width="current" height="25" viewBox="0 0 24 25" fill="none" xmlns="http://www.w3.org/2000/svg">
<path d="M10.4752 11.7035H10.9359C11.2893 11.7035 11.5769 11.4167 11.5769 11.0633C11.5769 10.9639 11.5545 10.8702 11.5144 10.7861L11.516 10.7901L6.62179 0.373397C6.51683 0.153846 6.29728 0.00480773 6.04247 0.00480773H5.53606C5.28125 0.00480773 5.0609 0.153846 4.95833 0.369391L4.95673 0.373397L0.0608974 10.7901C0.0224359 10.8702 0 10.9639 0 11.0633C0 11.4167 0.286859 11.7035 0.640224 11.7035H0.641026H1.10256C1.35737 11.7035 1.57772 11.5545 1.68189 11.3389L1.68349 11.3349L2.74519 9.06971H8.82212L9.89824 11.3373C10.004 11.5553 10.2228 11.7035 10.4776 11.7035H10.4752ZM3.54006 7.35657L5.78686 2.59696L8.02244 7.35657H3.54006ZM13.0889 11.7035H18.1923C18.2484 11.7067 18.3133 11.7083 18.379 11.7083C19.3301 11.7083 20.1971 11.347 20.8502 10.7548L20.847 10.7572C21.4599 10.1803 21.8413 9.36298 21.8413 8.45753C21.8413 8.4367 21.8413 8.41667 21.8405 8.39583V8.39904C21.8405 8.38862 21.8405 8.3766 21.8405 8.36378C21.8405 7.58654 21.5689 6.8726 21.1154 6.3117L21.1202 6.31811C20.9095 6.05529 20.6651 5.83093 20.3902 5.64824L20.3782 5.64103C20.5256 5.49679 20.6587 5.33974 20.7748 5.16987L20.7821 5.15946C21.1466 4.63462 21.3646 3.98317 21.3646 3.28205C21.3646 3.27083 21.3646 3.25962 21.3646 3.2484V3.25C21.3646 3.23878 21.3646 3.22436 21.3646 3.21074C21.3646 2.3141 20.9824 1.50641 20.371 0.942308L20.3686 0.940705C19.7171 0.356571 18.8526 0 17.9046 0C17.8381 0 17.7724 0.0016026 17.7067 0.00480773H17.7155H13.0881C12.734 0.00480773 12.4471 0.291667 12.4471 0.645833V11.0625C12.4471 11.4167 12.734 11.7035 13.0881 11.7035H13.0889ZM19.2003 4.44872C18.9679 4.73478 18.6162 4.91667 18.222 4.91667C18.2059 4.91667 18.1899 4.91667 18.1739 4.91587H18.1763H14.1603V1.71875H17.7003C17.7476 1.71474 17.8029 1.71234 17.8582 1.71234C18.3542 1.71234 18.8085 1.88782 19.1635 2.18029L19.1603 2.17788C19.4511 2.4359 19.633 2.8109 19.633 3.22756C19.633 3.24038 19.633 3.2532 19.6322 3.26683V3.26522C19.6322 3.27404 19.6322 3.28365 19.6322 3.29327C19.6322 3.73638 19.4679 4.14183 19.1963 4.45112L19.1979 4.44872H19.2003ZM19.609 7.14263C19.9183 7.45513 20.1098 7.88462 20.1098 8.35978C20.1098 8.36859 20.1098 8.3766 20.1098 8.38542V8.38381C20.1098 8.39583 20.1106 8.41026 20.1106 8.42468C20.1106 8.85657 19.9271 9.24519 19.6338 9.51683L19.633 9.51763C19.2877 9.8149 18.8357 9.99599 18.3405 9.99599C18.2829 9.99599 18.2268 9.99359 18.1699 9.98878L18.1771 9.98958H14.1611V6.6282H18.1923C18.2324 6.625 18.2796 6.6234 18.3269 6.6234C18.8253 6.6234 19.2772 6.82131 19.609 7.14263ZM23.6763 11.9263C23.4992 11.7628 23.2612 11.6635 23 11.6635C22.7075 11.6635 22.4447 11.7885 22.262 11.9888L22.2612 11.9896L13.4623 21.6066L11.0345 19.1963C10.8534 19.0168 10.6042 18.9054 10.3285 18.9054C9.77564 18.9054 9.32692 19.3542 9.32692 19.9071C9.32692 20.1851 9.4399 20.4359 9.6226 20.6178L12.7909 23.7636L12.8085 23.7756L12.8205 23.7925C12.8798 23.8413 12.9479 23.8838 13.0208 23.9175L13.0264 23.9199C13.0561 23.9407 13.0897 23.9623 13.125 23.9816L13.1306 23.984C13.2388 24.0288 13.3646 24.0553 13.4968 24.0553C13.637 24.0553 13.77 24.0256 13.8902 23.9728L13.8838 23.9752C13.9247 23.9511 13.9599 23.9271 13.9928 23.9022L13.9904 23.9038C14.0729 23.863 14.1442 23.8149 14.2075 23.7588L14.2067 23.7596L14.2188 23.7412L14.2348 23.73L23.7372 13.3429C23.9006 13.1659 24 12.9279 24 12.6667C24 12.3742 23.875 12.1114 23.6747 11.9287L23.6739 11.9279L23.6763 11.9263Z" fill="currentColor"/>
</svg>
