<svg width="current" height="16" viewBox="0 0 24 16" fill="none" xmlns="http://www.w3.org/2000/svg">
<path d="M23.8963 7.42363C21.7291 3.04323 17.2104 0 12 0C6.78963 0 2.27089 3.04323 0.103746 7.42363C-0.0345821 7.70029 -0.0345821 8.02305 0.103746 8.2536C2.27089 12.634 6.78963 15.6772 12 15.6772C17.2104 15.6772 21.7291 12.634 23.8963 8.2536C24.0346 7.97695 24.0346 7.70029 23.8963 7.42363ZM12 12.9107C9.18732 12.9107 6.92795 10.6513 6.92795 7.83862C6.92795 5.02594 9.18732 2.76657 12 2.76657C14.8127 2.76657 17.072 5.02594 17.072 7.83862C17.072 10.6513 14.8127 12.9107 12 12.9107Z" fill="currentColor"/>
<path d="M12.0001 4.61096C10.2019 4.61096 8.77246 6.04036 8.77246 7.83863C8.77246 9.6369 10.2019 11.0663 12.0001 11.0663C13.7984 11.0663 15.2278 9.6369 15.2278 7.83863C15.2278 6.04036 13.7984 4.61096 12.0001 4.61096Z" fill="currentColor"/>
</svg>
