<svg width="30" height="30" viewBox="0 0 30 30" fill="none" xmlns="http://www.w3.org/2000/svg">
<path d="M15 11.2546C15.7417 11.2546 16.4667 11.4745 17.0834 11.8866C17.7001 12.2986 18.1807 12.8843 18.4646 13.5695C18.7484 14.2547 18.8226 15.0087 18.6779 15.7362C18.5333 16.4636 18.1761 17.1318 17.6517 17.6562C17.1272 18.1807 16.459 18.5378 15.7316 18.6825C15.0042 18.8272 14.2502 18.753 13.5649 18.4691C12.8797 18.1853 12.294 17.7046 11.882 17.088C11.4699 16.4713 11.25 15.7463 11.25 15.0046C11.2511 14.0104 11.6466 13.0572 12.3496 12.3542C13.0526 11.6511 14.0058 11.2557 15 11.2546ZM15 9.37958C13.8875 9.37958 12.7999 9.70948 11.8749 10.3276C10.9499 10.9456 10.2289 11.8241 9.80318 12.852C9.37744 13.8798 9.26604 15.0108 9.48309 16.102C9.70013 17.1931 10.2359 18.1954 11.0225 18.9821C11.8092 19.7687 12.8115 20.3045 13.9026 20.5215C14.9938 20.7385 16.1248 20.6271 17.1526 20.2014C18.1804 19.7757 19.0589 19.0547 19.677 18.1297C20.2951 17.2046 20.625 16.1171 20.625 15.0046C20.625 13.5127 20.0324 12.082 18.9775 11.0271C17.9226 9.97221 16.4918 9.37958 15 9.37958Z" fill="black"/>
<path d="M5.0564 6.38672L6.38209 5.06103L9.66881 8.34775L8.34312 9.67344L5.0564 6.38672Z" fill="currentColor"/>
<path d="M1.875 14.0671H6.5625V15.9421H1.875V14.0671Z" fill="currentColor"/>
<path d="M5.0564 23.6224L8.34312 20.3357L9.66881 21.6614L6.38209 24.9481L5.0564 23.6224Z" fill="currentColor"/>
<path d="M14.0625 23.4421H15.9375V28.1296H14.0625V23.4421Z" fill="currentColor"/>
<path d="M20.3311 21.6614L21.6567 20.3357L24.9435 23.6225L23.6178 24.9482L20.3311 21.6614Z" fill="currentColor"/>
<path d="M23.4375 14.0671H28.125V15.9421H23.4375V14.0671Z" fill="currentColor"/>
<path d="M20.3311 8.34778L23.6178 5.06106L24.9435 6.38675L21.6567 9.67347L20.3311 8.34778Z" fill="currentColor"/>
<path d="M14.0625 1.87958H15.9375V6.56708H14.0625V1.87958Z" fill="currentColor"/>
</svg>
