<svg width="current" height="26" viewBox="0 0 26 26" fill="none" xmlns="http://www.w3.org/2000/svg">
<path d="M17.2002 9.40002L17.4061 9.60591C19.0061 11.2059 19.8061 12.0059 19.8061 13C19.8061 13.9941 19.0061 14.7941 17.4061 16.3941L17.2002 16.6" stroke="currentColor" stroke-width="2" stroke-linecap="round"/>
<path d="M14.553 7.20447L13.0001 13L11.4473 18.7956" stroke="currentColor" stroke-width="2" stroke-linecap="round"/>
<path d="M8.80023 9.40002L8.59434 9.60591C6.99434 11.2059 6.19434 12.0059 6.19434 13C6.19434 13.9941 6.99434 14.7941 8.59434 16.3941L8.80023 16.6" stroke="currentColor" stroke-width="2" stroke-linecap="round"/>
<path d="M1 13C1 7.34314 1 4.51472 2.75736 2.75736C4.51472 1 7.34314 1 13 1C18.6568 1 21.4853 1 23.2426 2.75736C25 4.51472 25 7.34314 25 13C25 18.6568 25 21.4853 23.2426 23.2426C21.4853 25 18.6568 25 13 25C7.34314 25 4.51472 25 2.75736 23.2426C1 21.4853 1 18.6568 1 13Z" stroke="currentColor" stroke-width="2"/>
</svg>
