<svg width="current" height="24" viewBox="0 0 17 24" fill="none" xmlns="http://www.w3.org/2000/svg">
<path fill-rule="evenodd" clip-rule="evenodd" d="M3.09091 3.09091V9.27273H9.27273C10.9798 9.27273 12.3636 7.88893 12.3636 6.18182C12.3636 4.47476 10.9798 3.09091 9.27273 3.09091H3.09091ZM13.811 10.3794C14.8311 9.27705 15.4545 7.80223 15.4545 6.18182C15.4545 2.76769 12.6868 0 9.27273 0H2.31818C1.03788 0 0 1.03788 0 2.31818V10.8182V20.8636C0 22.1439 1.03788 23.1818 2.31818 23.1818H10.0455C13.8864 23.1818 17 20.0682 17 16.2273C17 13.774 15.7296 11.6173 13.811 10.3794ZM9.27273 12.3636H3.09091V20.0909H10.0455C12.1793 20.0909 13.9091 18.3611 13.9091 16.2273C13.9091 14.0935 12.1793 12.3636 10.0455 12.3636H9.27273Z" fill="currentColor"/>
</svg>
