<svg width="current" height="20" viewBox="0 0 26 20" fill="none" xmlns="http://www.w3.org/2000/svg">
<path d="M1.89544 1.21597V4.92645H2.95941V0H2.11002L0.634766 0.992442L1.05499 1.74348L1.89544 1.21597Z" fill="currentColor"/>
<path d="M1.99332 7.84122C2.08545 7.83264 2.17837 7.84297 2.26637 7.87158C2.35437 7.90018 2.43561 7.94645 2.50509 8.00757C2.57457 8.06868 2.63084 8.14334 2.67045 8.22697C2.71005 8.3106 2.73216 8.40143 2.73541 8.49391C2.73541 8.83367 2.54765 9.15554 1.95755 9.62941L0.169368 11.0331V11.9272H3.87091V10.9348H1.77873L2.67283 10.2463C3.56692 9.62047 3.81727 9.11083 3.81727 8.45815C3.80971 8.23518 3.75664 8.01612 3.66131 7.81442C3.56598 7.61272 3.43041 7.43264 3.26293 7.28526C3.09545 7.13788 2.8996 7.0263 2.68742 6.95739C2.47523 6.88848 2.2512 6.86369 2.02908 6.88454C1.65646 6.88238 1.28866 6.96881 0.955993 7.13669C0.623329 7.30458 0.335326 7.54912 0.115723 7.85016L0.795233 8.50285C0.931754 8.309 1.11054 8.14871 1.3181 8.03409C1.52565 7.91947 1.75654 7.85352 1.99332 7.84122Z" fill="currentColor"/>
<path d="M2.87898 16.6212C3.13278 16.5578 3.35832 16.4118 3.52016 16.2063C3.682 16.0008 3.77096 15.7473 3.77307 15.4857C3.77307 14.7078 3.07568 14.1356 1.98489 14.1356C1.6241 14.1293 1.26677 14.2068 0.940985 14.3619C0.615197 14.5171 0.329824 14.7456 0.107291 15.0297L0.724215 15.6734C0.866998 15.5019 1.04427 15.3623 1.24451 15.2637C1.44476 15.1651 1.6635 15.1098 1.88654 15.1012C2.36935 15.1012 2.7091 15.3337 2.7091 15.6913C2.7091 16.049 2.38723 16.2457 1.81501 16.2457H1.29643V17.1398H1.86865C2.53028 17.1398 2.82533 17.3275 2.82533 17.703C2.82533 18.0786 2.5124 18.311 1.93124 18.311C1.68539 18.3091 1.44258 18.2565 1.21798 18.1565C0.993379 18.0565 0.79181 17.9113 0.625865 17.7299L0 18.4273C0.249178 18.7011 0.555032 18.9173 0.896275 19.0609C1.23752 19.2045 1.60596 19.272 1.97594 19.2588C3.12932 19.2588 3.88036 18.6418 3.88036 17.7924C3.87966 17.5101 3.77853 17.2373 3.59506 17.0227C3.4116 16.8081 3.15776 16.6658 2.87898 16.6212Z" fill="currentColor"/>
<path d="M26.0001 2.63756C26.0001 2.40043 25.9059 2.17302 25.7383 2.00534C25.5706 1.83767 25.3432 1.74347 25.1061 1.74347H5.95459V3.53165H25.1061C25.3432 3.53165 25.5706 3.43746 25.7383 3.26978C25.9059 3.10211 26.0001 2.87469 26.0001 2.63756Z" fill="currentColor"/>
<path d="M25.1061 8.89624H5.95459V10.6844H25.1061C25.3432 10.6844 25.5706 10.5902 25.7383 10.4226C25.9059 10.2549 26.0001 10.0275 26.0001 9.79033C26.0001 9.5532 25.9059 9.32579 25.7383 9.15811C25.5706 8.99044 25.3432 8.89624 25.1061 8.89624Z" fill="currentColor"/>
<path d="M25.1061 16.049H5.95459V17.8372H25.1061C25.3432 17.8372 25.5706 17.743 25.7383 17.5753C25.9059 17.4076 26.0001 17.1802 26.0001 16.9431C26.0001 16.706 25.9059 16.4786 25.7383 16.3109C25.5706 16.1432 25.3432 16.049 25.1061 16.049Z" fill="currentColor"/>
</svg>
