<svg width="current" height="17" viewBox="0 0 26 17" fill="none" xmlns="http://www.w3.org/2000/svg">
<path fill-rule="evenodd" clip-rule="evenodd" d="M0.928571 0C0.416 0 0 0.416 0 0.928571C0 1.44207 0.416 1.85714 0.928571 1.85714C1.44114 1.85714 1.85714 1.44207 1.85714 0.928571C1.85714 0.416 1.44114 0 0.928571 0ZM25.0714 7.42857H6.5C5.98743 7.42857 5.57143 7.84457 5.57143 8.35714C5.57143 8.87064 5.98743 9.28571 6.5 9.28571H25.0714C25.584 9.28571 26 8.87064 26 8.35714C26 7.84457 25.584 7.42857 25.0714 7.42857ZM25.0714 14.8571H6.5C5.98743 14.8571 5.57143 15.2731 5.57143 15.7857C5.57143 16.2992 5.98743 16.7143 6.5 16.7143H25.0714C25.584 16.7143 26 16.2992 26 15.7857C26 15.2731 25.584 14.8571 25.0714 14.8571ZM0.928571 7.42857C0.416 7.42857 0 7.84457 0 8.35714C0 8.87064 0.416 9.28571 0.928571 9.28571C1.44114 9.28571 1.85714 8.87064 1.85714 8.35714C1.85714 7.84457 1.44114 7.42857 0.928571 7.42857ZM0.928571 14.8571C0.416 14.8571 0 15.2731 0 15.7857C0 16.2992 0.416 16.7143 0.928571 16.7143C1.44114 16.7143 1.85714 16.2992 1.85714 15.7857C1.85714 15.2731 1.44114 14.8571 0.928571 14.8571ZM6.5 1.85714H25.0714C25.584 1.85714 26 1.44207 26 0.928571C26 0.416 25.584 0 25.0714 0H6.5C5.98743 0 5.57143 0.416 5.57143 0.928571C5.57143 1.44207 5.98743 1.85714 6.5 1.85714Z" fill="currentColor"/>
</svg>
