<svg width="current" height="15" viewBox="0 0 30 15" fill="none" xmlns="http://www.w3.org/2000/svg">
<path d="M3.56209 4.91864C3.27674 4.91864 2.99175 4.95426 2.8496 5.02551C3.16669 3.75503 4.36875 2.33005 5.49957 1.71456C5.50203 1.7135 5.5038 1.71174 5.50591 1.71068C5.51438 1.70609 5.52284 1.69974 5.53096 1.69516L5.5299 1.69445C5.65511 1.62744 5.74329 1.49975 5.74329 1.34773C5.74329 1.21088 5.66993 1.09624 5.56517 1.02464L5.57399 1.01618L4.09399 0.081478L4.0894 0.0853577C4.02274 0.0349192 3.94373 0 3.85379 0C3.78889 0 3.73034 0.0190467 3.67602 0.0465586L3.66861 0.0398573C1.4606 1.60663 0 3.9924 0 6.66388C0 8.97841 1.49587 10.2958 3.16916 10.2958C4.70066 10.2958 5.98314 9.01404 5.98314 7.48219C5.98349 5.9514 4.91547 4.91864 3.56209 4.91864Z" fill="currentColor"/>
<path d="M10.8092 4.91864C10.5238 4.91864 10.2388 4.95426 10.0967 5.02551C10.4138 3.75503 11.6158 2.33005 12.7466 1.71456C12.7491 1.7135 12.7509 1.71174 12.753 1.71068C12.7614 1.70609 12.7699 1.69974 12.778 1.69516L12.777 1.69445C12.9022 1.62744 12.9904 1.49975 12.9904 1.34773C12.9904 1.21088 12.917 1.09624 12.8122 1.02464L12.8211 1.01618L11.3411 0.081478L11.3365 0.0853577C11.2698 0.0349192 11.1908 0 11.1009 0C11.036 0 10.9774 0.0190467 10.9231 0.0465586L10.9157 0.0398573C8.70767 1.60663 7.24707 3.9924 7.24707 6.66388C7.24707 8.97841 8.74294 10.2958 10.4162 10.2958C11.9477 10.2958 13.2302 9.01404 13.2302 7.48219C13.2306 5.9514 12.1625 4.91864 10.8092 4.91864Z" fill="currentColor"/>
<path d="M19.5835 3.9762C18.052 3.9762 16.7695 5.25797 16.7695 6.78982C16.7695 8.32097 17.8376 9.35372 19.1909 9.35372C19.4763 9.35372 19.7613 9.3181 19.9034 9.24685C19.5863 10.5173 18.3843 11.9423 17.2535 12.5578C17.251 12.5589 17.2492 12.5606 17.2471 12.5617C17.2386 12.5663 17.2302 12.5726 17.2221 12.5772L17.2231 12.5779C17.0979 12.6449 17.0097 12.7726 17.0097 12.9246C17.0097 13.0615 17.0831 13.1761 17.1879 13.2477L17.179 13.2562L18.659 14.1909L18.6636 14.187C18.7303 14.2374 18.8093 14.2724 18.8992 14.2724C18.9641 14.2724 19.0227 14.2533 19.077 14.2258L19.0844 14.2325C21.2924 12.6654 22.753 10.28 22.753 7.60848C22.7527 5.29359 21.2568 3.9762 19.5835 3.9762Z" fill="currentColor"/>
<path d="M26.8306 3.9762C25.2991 3.9762 24.0166 5.25797 24.0166 6.78982C24.0166 8.32097 25.0846 9.35372 26.438 9.35372C26.7234 9.35372 27.0083 9.3181 27.1505 9.24685C26.8334 10.5173 25.6313 11.9423 24.5005 12.5578C24.4981 12.5589 24.4963 12.5606 24.4942 12.5617C24.4857 12.5663 24.4772 12.5726 24.4691 12.5772L24.4702 12.5779C24.345 12.6449 24.2568 12.7726 24.2568 12.9246C24.2568 13.0615 24.3302 13.1761 24.4349 13.2477L24.4261 13.2562L25.9061 14.1909L25.9107 14.187C25.9774 14.2374 26.0564 14.2724 26.1463 14.2724C26.2112 14.2724 26.2698 14.2533 26.3241 14.2258L26.3315 14.2325C28.5395 12.6654 30.0001 10.28 30.0001 7.60848C29.9997 5.29359 28.5039 3.9762 26.8306 3.9762Z" fill="currentColor"/>
</svg>
