<svg width="current" height="25" viewBox="0 0 14 25" fill="none" xmlns="http://www.w3.org/2000/svg">
<path d="M9.60587 0.000193916C9.61807 -6.39469e-05 9.63031 -6.53293e-05 9.64259 0.000193916H13.125C13.6082 0.000193916 14 0.391945 14 0.875194C14 1.35844 13.6082 1.75019 13.125 1.75019H10.3211L5.47492 22.7502H7.875C8.35825 22.7502 8.75 23.1419 8.75 23.6252C8.75 24.1084 8.35825 24.5002 7.875 24.5002H4.39413C4.38193 24.5004 4.36969 24.5005 4.35741 24.5002H0.875C0.391751 24.5002 0 24.1084 0 23.6252C0 23.1419 0.391751 22.7502 0.875 22.7502H3.67893L8.52508 1.75019H6.125C5.64175 1.75019 5.25 1.35844 5.25 0.875194C5.25 0.391945 5.64175 0.000193916 6.125 0.000193916H9.60587Z" fill="currentColor"/>
</svg>
