<svg width="current" height="26" viewBox="0 0 26 26" fill="none" xmlns="http://www.w3.org/2000/svg">
<path d="M24.5 18.25V23.25C24.5 23.9404 23.9404 24.5 23.25 24.5H3.25C2.55965 24.5 2 23.9404 2 23.25V20.75M24.5 18.25V3.25C24.5 2.55965 23.9404 2 23.25 2H3.25C2.55965 2 2 2.55965 2 3.25V20.75M24.5 18.25L17.6036 13.6524C17.2304 13.4035 16.7524 13.3737 16.3511 13.5744L2 20.75" stroke="currentColor" stroke-width="2.5" stroke-linejoin="round"/>
<path d="M8.25 12C9.63071 12 10.75 10.8807 10.75 9.5C10.75 8.11929 9.63071 7 8.25 7C6.86929 7 5.75 8.11929 5.75 9.5C5.75 10.8807 6.86929 12 8.25 12Z" stroke="currentColor" stroke-width="2.5" stroke-linejoin="round"/>
</svg>
