<svg width="current" height="21" viewBox="0 0 28 21" fill="none" xmlns="http://www.w3.org/2000/svg">
<path fill-rule="evenodd" clip-rule="evenodd" d="M11.079 4.8204C10.7179 4.61407 10.2743 4.61555 9.91458 4.82429C9.55488 5.03303 9.3335 5.41747 9.3335 5.83335V15.1667C9.3335 15.5826 9.55488 15.967 9.91458 16.1757C10.2743 16.3845 10.7179 16.386 11.079 16.1796L19.2456 11.5129C19.6091 11.3053 19.8335 10.9187 19.8335 10.5C19.8335 10.0813 19.6091 9.69478 19.2456 9.48712L11.079 4.8204ZM16.3153 10.5L11.6668 13.1563V7.84373L16.3153 10.5Z" fill="currentColor"/>
<path fill-rule="evenodd" clip-rule="evenodd" d="M0 10.5C0 6.12531 0 3.93797 1.11407 2.40458C1.47386 1.90937 1.90937 1.47386 2.40458 1.11406C3.93797 6.95387e-08 6.12531 0 10.5 0H17.5C21.8746 0 24.062 6.95387e-08 25.5954 1.11406C26.0906 1.47386 26.5261 1.90937 26.8859 2.40458C28 3.93797 28 6.12531 28 10.5C28 14.8746 28 17.062 26.8859 18.5954C26.5261 19.0906 26.0906 19.5261 25.5954 19.8859C24.062 21 21.8746 21 17.5 21H10.5C6.12531 21 3.93797 21 2.40458 19.8859C1.90937 19.5261 1.47386 19.0906 1.11407 18.5954C0 17.062 0 14.8746 0 10.5ZM10.5 2.33333H17.5C19.7393 2.33333 21.2313 2.33654 22.3618 2.45902C23.4487 2.57677 23.9213 2.78189 24.224 3.00177C24.521 3.21765 24.7823 3.47895 24.9983 3.77608C25.2181 4.07872 25.4232 4.55132 25.541 5.63814C25.6635 6.76861 25.6667 8.2607 25.6667 10.5C25.6667 12.7393 25.6635 14.2313 25.541 15.3618C25.4232 16.4487 25.2181 16.9213 24.9983 17.224C24.7823 17.521 24.521 17.7823 24.224 17.9983C23.9213 18.2181 23.4487 18.4232 22.3618 18.541C21.2313 18.6635 19.7393 18.6667 17.5 18.6667H10.5C8.26068 18.6667 6.76861 18.6635 5.63814 18.541C4.55132 18.4232 4.07872 18.2181 3.77608 17.9983C3.47895 17.7823 3.21765 17.521 3.00177 17.224C2.78189 16.9213 2.57677 16.4487 2.45902 15.3618C2.33654 14.2313 2.33333 12.7393 2.33333 10.5C2.33333 8.2607 2.33654 6.76861 2.45902 5.63814C2.57677 4.55132 2.78189 4.07872 3.00177 3.77608C3.21765 3.47895 3.47895 3.21765 3.77608 3.00177C4.07872 2.78189 4.55132 2.57677 5.63814 2.45902C6.76861 2.33654 8.26068 2.33333 10.5 2.33333Z" fill="currentColor"/>
</svg>
