<svg width="current" height="30" viewBox="0 0 20 20" fill="none" xmlns="http://www.w3.org/2000/svg">
<path d="M11.1111 0C11.6809 0 12.1506 0.428938 12.2147 0.981533L12.2222 1.11111V18.8889C12.2222 19.5026 11.7248 20 11.1111 20C10.5413 20 10.0717 19.5711 10.0075 19.0185L10 18.8889V11.1111H2.22222V18.8889C2.22222 19.5026 1.72476 20 1.11111 20C0.541298 20 0.0716593 19.5711 0.00747522 19.0185L0 18.8889V1.11111C0 0.497467 0.497467 0 1.11111 0C1.68092 0 2.15056 0.428938 2.21475 0.981533L2.22222 1.11111V8.88889H10V1.11111C10 0.497467 10.4974 0 11.1111 0ZM17.0793 10.5556C18.6967 10.5556 20 11.8727 20 13.4816C20 14.1383 19.7778 14.7702 19.3797 15.2779C19.7777 15.7854 19.9998 16.4173 19.9998 17.074C19.9998 18.6829 18.6964 20 17.0791 20C15.9104 20 14.8133 19.6107 14.3192 18.4462C14.0511 17.8144 14.0646 17.0576 14.8038 16.7438C15.3284 16.5212 15.9283 16.7327 16.2032 17.2163L16.2607 17.3327C16.4141 17.6941 16.5706 17.7621 16.8627 17.7748L17.0791 17.7778C17.4607 17.7778 17.7776 17.464 17.7776 17.074C17.7776 16.6602 17.4612 16.4326 17.0951 16.3946L16.984 16.3889C16.3703 16.3889 15.8729 15.8914 15.8729 15.2778C15.8729 14.7079 16.302 14.2383 16.8545 14.1741L16.9841 14.1667C17.395 14.1667 17.7778 13.9368 17.7778 13.4816C17.7778 13.0916 17.4609 12.7778 17.0793 12.7778L16.863 12.7807C16.6032 12.7921 16.4508 12.847 16.3124 13.1129L16.261 13.2229C16.0212 13.7878 15.369 14.0514 14.8041 13.8118C14.0501 13.4918 14.0621 12.9121 14.1793 12.4912L14.234 12.3218L14.3194 12.1093C14.8136 10.9449 15.9107 10.5556 17.0793 10.5556Z" fill="currentColor"/>
</svg>
