<svg width="current" height="30" viewBox="0 0 20 20" fill="none" xmlns="http://www.w3.org/2000/svg">
<path d="M10.8967 0C11.4555 0 11.9161 0.42066 11.979 0.962591L11.9864 1.08967V18.5244C11.9864 19.1262 11.4985 19.614 10.8967 19.614C10.3379 19.614 9.87729 19.1934 9.81435 18.6515L9.80702 18.5244V10.8967H2.17934V18.5244C2.17934 19.1262 1.69147 19.614 1.08967 19.614C0.530852 19.614 0.0702764 19.1934 0.00733096 18.6515L0 18.5244V1.08967C0 0.487867 0.487867 0 1.08967 0C1.64849 0 2.10906 0.42066 2.17201 0.962591L2.17934 1.08967V8.71735H9.80702V1.08967C9.80702 0.487867 10.2949 0 10.8967 0ZM15.9718 10.547C16.6611 10.3747 17.3801 10.47 18.0127 10.7863C19.2786 11.4193 19.9352 12.8467 19.5919 14.2199C19.4822 14.6588 19.2836 15.0694 19.0019 15.4213L18.8541 15.5922L17.1344 17.4347H18.9103C19.5122 17.4347 20 17.9225 20 18.5244C20 19.0832 19.5794 19.5438 19.0374 19.6067L18.9103 19.614H14.8731C14.2657 19.614 13.7733 19.1217 13.7733 18.5142C13.7733 18.195 13.7975 17.8938 13.9805 17.6339L14.069 17.525L17.2609 14.1052C17.7789 13.5503 17.3225 12.4558 16.5003 12.6613C16.1784 12.7418 15.9526 13.031 15.9526 13.3628C15.9526 13.991 15.5357 14.5549 14.863 14.5549C14.1902 14.5549 13.7733 13.991 13.7733 13.3628C13.7733 12.031 14.6797 10.8701 15.9718 10.547Z" fill="currentColor"/>
</svg>
