<svg width="current" height="30" viewBox="0 0 20 23" fill="none" xmlns="http://www.w3.org/2000/svg">
<path d="M12.4999 0C13.141 0 13.6693 0.482552 13.7415 1.10422L13.7499 1.24999V21.2499C13.7499 21.9402 13.1903 22.4999 12.4999 22.4999C11.8589 22.4999 11.3305 22.0173 11.2583 21.3956L11.2499 21.2499V12.4999H2.49998V21.2499C2.49998 21.9402 1.94034 22.4999 1.24999 22.4999C0.608957 22.4999 0.0806162 22.0173 0.00840957 21.3956L0 21.2499V1.24999C0 0.559647 0.559647 0 1.24999 0C1.89103 0 2.41937 0.482552 2.49157 1.10422L2.49998 1.24999V9.99994H11.2499V1.24999C11.2499 0.559647 11.8096 0 12.4999 0ZM20 13.1484V21.25C20 21.9404 19.4404 22.5 18.75 22.5C18.0596 22.5 17.5 21.9404 17.5 21.25V15.4577C16.9338 15.7853 16.2029 15.6203 15.835 15.0684C15.452 14.494 15.6073 13.7179 16.1816 13.3349L18.0373 12.0979C18.8761 11.5386 20 12.14 20 13.1484Z" fill="currentColor"/>
</svg>
