<svg width="current" height="22" viewBox="0 0 26 22" fill="currentColor" xmlns="http://www.w3.org/2000/svg">
<path d="M15.9048 0.0342881C16.4377 0.177071 16.754 0.724843 16.6112 1.25775L11.3187 21.01C11.1758 21.5429 10.6281 21.8591 10.0951 21.7163C9.56223 21.5735 9.24599 21.0257 9.38878 20.4928L14.6814 0.740653C14.8242 0.207746 15.3719 -0.108509 15.9048 0.0342881Z" fill="currentColor"/>
<path d="M18.9171 4.09974C19.2861 3.68966 19.9178 3.65642 20.3279 4.02548L22.6421 6.10828C23.6229 6.99092 24.4365 7.72312 24.9951 8.38709C25.5825 9.08542 26 9.83557 26 10.7617C26 11.6878 25.5825 12.438 24.9951 13.1362C24.4365 13.8003 23.6229 14.5325 22.6421 15.4152L20.3279 17.4979C19.9178 17.867 19.2861 17.8337 18.9171 17.4237C18.548 17.0136 18.5813 16.382 18.9914 16.013L21.2509 13.9792C22.3003 13.0349 23.0078 12.395 23.4662 11.8501C23.9061 11.3272 24.0021 11.0221 24.0021 10.7617C24.0021 10.5014 23.9061 10.1961 23.4662 9.67321C23.0078 9.12844 22.3003 8.48858 21.2509 7.54415L18.9914 5.51051C18.5813 5.14144 18.548 4.50981 18.9171 4.09974Z" fill="currentColor"/>
<path d="M7.00868 5.51051C7.41876 5.14144 7.452 4.50981 7.08292 4.09974C6.71386 3.68966 6.08223 3.65642 5.67215 4.02548L3.35793 6.10828C2.37717 6.99092 1.56361 7.72312 1.00498 8.38709C0.417562 9.08542 0 9.83557 0 10.7617C0 11.6878 0.417562 12.438 1.00498 13.1362C1.56361 13.8003 2.37716 14.5325 3.3579 15.415L5.67215 17.4979C6.08223 17.867 6.71386 17.8337 7.08292 17.4237C7.452 17.0136 7.41876 16.382 7.00868 16.013L4.74909 13.9792C3.69969 13.0349 2.99216 12.395 2.53385 11.8501C2.09397 11.3272 1.9979 11.0221 1.9979 10.7617C1.9979 10.5014 2.09397 10.1961 2.53385 9.67321C2.99216 9.12844 3.69969 8.48858 4.74909 7.54415L7.00868 5.51051Z" fill="currentColor"/>
</svg>
